<?xml version="1.0" encoding="UTF-8"?>
<svg version="1.1" xmlns="http://www.w3.org/2000/svg" width="500" height="500">
<path d="M0 0 C0 0.66 0 1.32 0 2 C49.83 2 99.66 2 151 2 C151 9.26 151 16.52 151 24 C132.85 24 114.7 24 96 24 C96.495 36.375 96.495 36.375 97 49 C96.92465262 54.87466524 96.81218481 60.69921191 96.5625 66.5625 C96.50888582 67.99020161 96.45615359 69.4179366 96.40429688 70.84570312 C96.27953164 74.23090963 96.1434182 77.61552571 96 81 C90.41953551 79.76834435 87.49798463 76.41644987 84 72 C76.99166503 60.11451964 74.68820678 50.76306435 74.875 37.0625 C74.88402344 35.80630859 74.89304687 34.55011719 74.90234375 33.25585938 C74.92580751 30.17037478 74.95863799 27.08528795 75 24 C73.35 24.33 71.7 24.66 70 25 C69.67 48.43 69.34 71.86 69 96 C58.63544495 90.81772247 53.60993851 79.24982919 49.83984375 68.77734375 C48.71534057 63.71969456 48.53338893 58.7924387 48.375 53.625 C48.31699219 52.16900391 48.31699219 52.16900391 48.2578125 50.68359375 C47.93521054 41.77747543 48 32.9259881 48 24 C29.85 24 11.7 24 -7 24 C-7.94439174 21.16682477 -8.05549194 19.71099767 -7.9375 16.8125 C-7.87241144 13.48755955 -8.22357358 10.80478166 -9.1875 7.625 C-10 4 -10 4 -8.8125 2.0625 C-5.68577632 0.22959301 -3.66689837 0 0 0 Z " fill="#355A7B" transform="translate(178,150)"/>
<path d="M0 0 C3.23647433 1.51189646 4.72359698 2.68561821 6.6875 5.6875 C13.05762914 14.45431139 22.68838859 19.35032008 31.85986328 24.73486328 C37.98260907 28.35430986 44.03843278 32.08573262 50.08837891 35.82519531 C51.65872926 36.79026886 53.24003071 37.73750098 54.82421875 38.6796875 C64.43712478 44.61855091 71.5580846 53.17266814 75 64 C75 65.32 75 66.64 75 68 C75.66 68.33 76.32 68.66 77 69 C77.54605351 83.62209945 75.81231856 95.30498234 68 108 C67.49597656 108.88816406 66.99195313 109.77632813 66.47265625 110.69140625 C64.51994934 113.75254626 62.03874967 115.17934188 59 117 C58.32324219 117.47566406 57.64648438 117.95132813 56.94921875 118.44140625 C42.51793183 128.11885748 26.03297097 127.58564102 9.32592773 127.41162109 C5.67728883 127.37489722 2.02966484 127.37060447 -1.61914062 127.37109375 C-3.97136283 127.36126693 -6.32357826 127.34961184 -8.67578125 127.3359375 C-9.74999832 127.33371185 -10.82421539 127.33148621 -11.9309845 127.32919312 C-18.80836671 127.24388359 -25.27710062 126.45053362 -32 125 C-32 124.34 -32 123.68 -32 123 C-32.72703125 122.9071875 -33.4540625 122.814375 -34.203125 122.71875 C-37.44491158 121.88566518 -39.17251074 120.61042745 -41.75 118.5 C-42.91789063 117.55640625 -42.91789063 117.55640625 -44.109375 116.59375 C-45.0991833 115.75936615 -46.0845993 114.9154007 -47 114 C-47.08767112 111.92737924 -47.10695873 109.85179706 -47.09765625 107.77734375 C-47.09443359 106.51728516 -47.09121094 105.25722656 -47.08789062 103.95898438 C-47.07953403 102.61848891 -47.07106907 101.27799412 -47.0625 99.9375 C-47.0574866 98.59310058 -47.05292342 97.2486994 -47.04882812 95.90429688 C-47.03699488 92.60282059 -47.02050971 89.30143197 -47 86 C-43.56803232 87.14398923 -43.15805749 87.86202043 -41.1875 90.75 C-34.91592335 99.25383274 -28.46443995 102.297258 -18 104 C-11.08413248 104.6256353 -4.14325588 104.57678561 2.79492188 104.52148438 C5.99426056 104.50003847 9.19135427 104.52137499 12.390625 104.546875 C32.06869271 104.85087207 32.06869271 104.85087207 49 96 C50.04622875 94.02379014 51.05439935 92.0262871 52 90 C52.66 89.67 53.32 89.34 54 89 C54.79600982 79.03513638 54.15648253 71.16894974 48 63 C44.59864371 59.85607325 40.92047548 57.44840017 37 55 C35.8934412 54.250215 34.79063772 53.49486174 33.69140625 52.734375 C28.74882218 48.76920357 28.74882218 48.76920357 23 47 C23 46.34 23 45.68 23 45 C22.278125 44.731875 21.55625 44.46375 20.8125 44.1875 C18 43 18 43 15.4375 41.375 C12.88577713 39.67245254 12.88577713 39.67245254 9 40 C8.814375 39.443125 8.62875 38.88625 8.4375 38.3125 C7.06583267 35.63522202 7.06583267 35.63522202 3.4375 34.34375 C1.53881836 33.02270508 1.53881836 33.02270508 0 31 C-0.91212686 25.7222775 -0.6576399 20.51180011 -0.4375 15.1875 C-0.40236551 13.71687057 -0.37043018 12.246161 -0.34179688 10.77539062 C-0.26487912 7.18192228 -0.14421661 3.59146893 0 0 Z " fill="#17202C" transform="translate(253,221)"/>
<path d="M0 0 C1.32 1.65 2.64 3.3 4 5 C5.12551286 6.16579967 6.2703048 7.31343442 7.4375 8.4375 C9.66316243 10.62036123 11.73434462 12.82061228 13.6875 15.25 C15.75262315 18.00390659 15.75262315 18.00390659 18.10842896 19.27964783 C20 21 20 21 20.53244019 23.81495667 C20.55481247 25.52799232 20.55481247 25.52799232 20.57763672 27.27563477 C20.60381073 28.57030167 20.62998474 29.86496857 20.6569519 31.1988678 C20.66525146 32.61304323 20.67281231 34.02722317 20.6796875 35.44140625 C20.69974828 36.88966392 20.72126279 38.33790213 20.74417114 39.78611755 C20.78799617 42.81989893 20.81850918 45.85342328 20.83886719 48.88745117 C20.86544648 52.78085929 20.91836363 56.67334276 20.98036003 60.56633091 C21.02621957 63.55588832 21.06155335 66.5454931 21.09332657 69.53523064 C21.10921544 70.9710173 21.12760924 72.40677846 21.14852524 73.84250069 C21.17546432 75.84614251 21.18746492 77.84996852 21.19873047 79.85375977 C21.20887177 80.99498795 21.21901306 82.13621613 21.22946167 83.31202698 C21 86 21 86 19 88 C16.24410223 87.98252073 13.61213324 87.86136729 10.875 87.625 C9.74384766 87.53992188 9.74384766 87.53992188 8.58984375 87.453125 C6.72581904 87.3115535 4.86278863 87.15700041 3 87 C3 86.34 3 85.68 3 85 C2.01 84.67 1.02 84.34 0 84 C0 56.28 0 28.56 0 0 Z " fill="#1C2837" transform="translate(227,233)"/>
<path d="M0 0 C1.35083427 0.03025772 1.35083427 0.03025772 2.72895813 0.06112671 C3.68747177 0.09332306 4.64598541 0.12551941 5.63354492 0.15869141 C7.12116585 0.19623032 7.12116585 0.19623032 8.63883972 0.23452759 C11.79758985 0.31651243 14.9556946 0.41318575 18.11401367 0.51025391 C20.25916984 0.56851541 22.40435228 0.62581821 24.54956055 0.68212891 C29.80071933 0.82026384 35.05074945 0.97826136 40.30151367 1.13525391 C40.30151367 9.05525391 40.30151367 16.97525391 40.30151367 25.13525391 C24.13151367 25.13525391 7.96151367 25.13525391 -8.69848633 25.13525391 C-9.02848633 17.54525391 -9.35848633 9.95525391 -9.69848633 2.13525391 C-4.07348633 -0.11474609 -4.07348633 -0.11474609 0 0 Z " fill="#528FB9" transform="translate(179.698486328125,177.86474609375)"/>
<path d="M0 0 C1.1446875 0.2784375 1.1446875 0.2784375 2.3125 0.5625 C5.08967375 1.22819173 5.08967375 1.22819173 8 0 C8.21527344 0.7528125 8.43054688 1.505625 8.65234375 2.28125 C10.77764229 6.5688088 14.48904711 7.90813521 18.56640625 10.15625 C21 12 21 12 21.64500427 14.32157898 C21.97625511 16.82084626 22.12062105 19.17952743 22.11352539 21.69848633 C22.11344986 22.59904251 22.11337433 23.49959869 22.11329651 24.42744446 C22.10813522 25.3859581 22.10297394 26.34447174 22.09765625 27.33203125 C22.0962413 28.32377853 22.09482635 29.31552582 22.09336853 30.33732605 C22.08778418 33.49574843 22.07523452 36.65409915 22.0625 39.8125 C22.05748298 41.95768127 22.05292042 44.10286365 22.04882812 46.24804688 C22.03781988 51.49872224 22.0210973 56.749356 22 62 C20.40307936 62.00497982 18.80615421 62.0085283 17.20922852 62.01147461 C16.31994156 62.01360458 15.4306546 62.01573456 14.51441956 62.01792908 C11.63747021 61.99741498 8.8017789 61.8303822 5.9375 61.5625 C5.01839844 61.48128906 4.09929687 61.40007812 3.15234375 61.31640625 C1 61 1 61 0 60 C-0.09386381 58.1281906 -0.11743804 56.2528194 -0.11352539 54.37866211 C-0.11344986 53.17749252 -0.11337433 51.97632294 -0.11329651 50.73875427 C-0.10813522 49.4314888 -0.10297394 48.12422333 -0.09765625 46.77734375 C-0.09579198 45.43355868 -0.09436812 44.08977293 -0.09336853 42.74598694 C-0.08954402 39.20317723 -0.07971432 35.6604083 -0.06866455 32.11761475 C-0.05844899 28.50484773 -0.0538706 24.89207416 -0.04882812 21.27929688 C-0.03809198 14.1861812 -0.02101636 7.09309326 0 0 Z " fill="#151D27" transform="translate(253,260)"/>
<path d="M0 0 C11.93913012 -0.46420573 23.27261498 1.44514864 34 7 C34.495 7.99 34.495 7.99 35 9 C36.32 9.66 37.64 10.32 39 11 C39 20.24 39 29.48 39 39 C36.69 37.02 34.38 35.04 32 33 C22.64098677 26.2635674 15.17039943 23.88650293 3.6953125 23.24609375 C1 23 1 23 0 22 C-0.08700342 20.36527118 -0.10701063 18.72685945 -0.09765625 17.08984375 C-0.09443359 16.10048828 -0.09121094 15.11113281 -0.08789062 14.09179688 C-0.07951172 13.05087891 -0.07113281 12.00996094 -0.0625 10.9375 C-0.05798828 9.89271484 -0.05347656 8.84792969 -0.04882812 7.77148438 C-0.03699913 5.1809334 -0.02051689 2.59049441 0 0 Z " fill="#1F2F41" transform="translate(280,180)"/>
<path d="M0 0 C1.2065625 0.0309375 1.2065625 0.0309375 2.4375 0.0625 C2.7675 0.7225 3.0975 1.3825 3.4375 2.0625 C2.4475 2.0625 1.4575 2.0625 0.4375 2.0625 C1.0975 2.7225 1.7575 3.3825 2.4375 4.0625 C3.0975 3.7325 3.7575 3.4025 4.4375 3.0625 C6.01041208 2.97246034 7.58711575 2.94493491 9.16259766 2.94897461 C10.14346344 2.94905014 11.12432922 2.94912567 12.13491821 2.94920349 C13.19641083 2.95436478 14.25790344 2.95952606 15.3515625 2.96484375 C16.43633881 2.9662587 17.52111511 2.96767365 18.63876343 2.96913147 C22.11337 2.97474198 25.58791281 2.98729628 29.0625 3 C31.41406157 3.00501365 33.76562415 3.00957679 36.1171875 3.01367188 C41.89064686 3.02471482 47.66406888 3.04146321 53.4375 3.0625 C53.4375 4.0525 53.4375 5.0425 53.4375 6.0625 C35.2875 6.0625 17.1375 6.0625 -1.5625 6.0625 C-1.2325 14.3125 -0.9025 22.5625 -0.5625 31.0625 C-0.63784738 36.93716524 -0.75031519 42.76171191 -1 48.625 C-1.05361418 50.05270161 -1.10634641 51.4804366 -1.15820312 52.90820312 C-1.28296836 56.29340963 -1.4190818 59.67802571 -1.5625 63.0625 C-5.43660027 62.26426505 -7.06915449 60.88051278 -9.8125 58 C-10.87210937 56.89978516 -10.87210937 56.89978516 -11.953125 55.77734375 C-12.48421875 55.21144531 -13.0153125 54.64554688 -13.5625 54.0625 C-13.2325 53.0725 -12.9025 52.0825 -12.5625 51.0625 C-12.2325 52.0525 -11.9025 53.0425 -11.5625 54.0625 C-10.9025 54.0625 -10.2425 54.0625 -9.5625 54.0625 C-8.9025 54.7225 -8.2425 55.3825 -7.5625 56.0625 C-6.2425 56.0625 -4.9225 56.0625 -3.5625 56.0625 C-3.56472061 55.37567642 -3.56694122 54.68885284 -3.56922913 53.98121643 C-3.59127895 46.86044838 -3.60640533 39.73968996 -3.61743164 32.61889648 C-3.62247383 29.95808519 -3.62930736 27.29727668 -3.63793945 24.63647461 C-3.65001009 20.82144484 -3.65572929 17.00645156 -3.66015625 13.19140625 C-3.66531754 11.99350967 -3.67047882 10.7956131 -3.67579651 9.56141663 C-3.67587204 8.4603508 -3.67594757 7.35928497 -3.67602539 6.22485352 C-3.678246 5.25000504 -3.68046661 4.27515656 -3.68275452 3.27076721 C-3.5083696 0.06848834 -3.22810019 0.07873415 0 0 Z " fill="#233A54" transform="translate(275.5625,167.9375)"/>
<path d="M0 0 C3.23647433 1.51189646 4.72359698 2.68561821 6.6875 5.6875 C13.24463576 14.73406944 23.6784562 20.15248817 33 26 C31.1875 26.625 31.1875 26.625 29 27 C28.01 26.34 27.02 25.68 26 25 C25.01 25.66 24.02 26.32 23 27 C22.34 25.68 21.68 24.36 21 23 C20.34 23 19.68 23 19 23 C18.67 21.68 18.34 20.36 18 19 C16.02 19 14.04 19 12 19 C11.6596875 17.576875 11.6596875 17.576875 11.3125 16.125 C10.31140443 12.84751075 10.31140443 12.84751075 7.5625 11.625 C4.95384291 10.88152191 4.95384291 10.88152191 2 11 C2.08378906 11.56847656 2.16757813 12.13695312 2.25390625 12.72265625 C2.91700632 17.75046566 2.80659026 21.95881088 2 27 C2.33 27.99 2.66 28.98 3 30 C3.66 30 4.32 30 5 30 C5.33 29.34 5.66 28.68 6 28 C6.66 28.99 7.32 29.98 8 31 C8.66 31.33 9.32 31.66 10 32 C10 33.65 10 35.3 10 37 C8.64649406 36.37530495 7.3191582 35.69429379 6 35 C4.97310059 34.46213867 3.94620117 33.92427734 2.88818359 33.37011719 C0 31 0 31 -0.68115234 27.70019531 C-0.64973145 26.42241211 -0.61831055 25.14462891 -0.5859375 23.828125 C-0.57744781 23.1457074 -0.56895813 22.46328979 -0.56021118 21.76019287 C-0.52672057 19.5884962 -0.45147242 17.42056617 -0.375 15.25 C-0.34489374 13.77479337 -0.31751905 12.2995283 -0.29296875 10.82421875 C-0.22695085 7.21492956 -0.12346917 3.60783258 0 0 Z " fill="#26364C" transform="translate(253,221)"/>
<path d="M0 0 C0.6875 1.6875 0.6875 1.6875 1 4 C-0.4375 6.75 -0.4375 6.75 -2 9 C-1.34 9.66 -0.68 10.32 0 11 C0.33333333 16.33333333 0.33333333 16.33333333 -1 19 C2.86763446 20.87543354 2.86763446 20.87543354 7 20 C7.33 20.66 7.66 21.32 8 22 C8.64960693 21.99476318 9.29921387 21.98952637 9.96850586 21.98413086 C12.95816043 21.96313497 15.94779941 21.9502687 18.9375 21.9375 C19.95908203 21.92912109 20.98066406 21.92074219 22.03320312 21.91210938 C28.1121997 21.89268766 33.9726232 22.20179682 40 23 C40 23.33 40 23.66 40 24 C25.15 24 10.3 24 -5 24 C-5.94439174 21.16682477 -6.05549194 19.71099767 -5.9375 16.8125 C-5.87241144 13.48755955 -6.22357358 10.80478166 -7.1875 7.625 C-8 4 -8 4 -6.8125 2.0625 C-4.55421868 0.73867991 -2.63522558 0 0 0 Z " fill="#6CABCA" transform="translate(176,150)"/>
<path d="M0 0 C0.79962158 0.00249756 1.59924316 0.00499512 2.4230957 0.00756836 C3.42171631 0.01667236 4.42033691 0.02577637 5.44921875 0.03515625 C10.24453125 0.06609375 10.24453125 0.06609375 15.13671875 0.09765625 C15.13671875 8.01765625 15.13671875 15.93765625 15.13671875 24.09765625 C3.58671875 24.09765625 -7.96328125 24.09765625 -19.86328125 24.09765625 C-15.81377395 22.0729026 -14.0351172 21.82881657 -9.63671875 21.75390625 C-8.44046875 21.72425781 -7.24421875 21.69460937 -6.01171875 21.6640625 C-3.48828367 21.61965422 -0.96484614 21.57538424 1.55859375 21.53125 C3.34910156 21.48677734 3.34910156 21.48677734 5.17578125 21.44140625 C6.27100098 21.42271484 7.3662207 21.40402344 8.49462891 21.38476562 C11.29215804 21.35993601 11.29215804 21.35993601 13.13671875 19.09765625 C13.37884748 17.11637117 13.37884748 17.11637117 13.26171875 14.97265625 C13.22046875 13.69390625 13.17921875 12.41515625 13.13671875 11.09765625 C12.47671875 11.09765625 11.81671875 11.09765625 11.13671875 11.09765625 C11.46671875 8.45765625 11.79671875 5.81765625 12.13671875 3.09765625 C4.87671875 2.76765625 -2.38328125 2.43765625 -9.86328125 2.09765625 C-9.86328125 1.76765625 -9.86328125 1.43765625 -9.86328125 1.09765625 C-6.51236354 0.34402573 -3.43218313 -0.02214312 0 0 Z " fill="#4D7598" transform="translate(204.86328125,178.90234375)"/>
<path d="M0 0 C0.99 0.33 1.98 0.66 3 1 C2.67 24.43 2.34 47.86 2 72 C-6.22759304 67.88620348 -11.62607096 59.42121805 -15 51 C-14.67 50.01 -14.34 49.02 -14 48 C-13.814375 48.9590625 -13.814375 48.9590625 -13.625 49.9375 C-13.41875 50.618125 -13.2125 51.29875 -13 52 C-12.34 52.33 -11.68 52.66 -11 53 C-9.98152514 54.99065541 -8.98482022 56.99248185 -8 59 C-5.82310608 62.53745262 -4.47112069 64.68591954 -1 67 C0.40081056 44.6870889 0.09651346 22.34509327 0 0 Z " fill="#314760" transform="translate(245,174)"/>
<path d="M0 0 C0.66 0 1.32 0 2 0 C2.22162329 1.62324086 2.42689803 3.248721 2.625 4.875 C2.79902344 6.23238281 2.79902344 6.23238281 2.9765625 7.6171875 C2.98429687 8.40351563 2.99203125 9.18984375 3 10 C2.34 10.66 1.68 11.32 1 12 C-1.75589777 11.98252073 -4.38786676 11.86136729 -7.125 11.625 C-7.87910156 11.56828125 -8.63320312 11.5115625 -9.41015625 11.453125 C-11.27418096 11.3115535 -13.13721137 11.15700041 -15 11 C-15 10.34 -15 9.68 -15 9 C-15.99 8.67 -16.98 8.34 -18 8 C-18 7.34 -18 6.68 -18 6 C-15.25 4.875 -15.25 4.875 -12 4 C-10.65117592 4.63474075 -9.3153341 5.29848848 -8 6 C-5.76529595 5.21690533 -5.76529595 5.21690533 -4 4 C-3.01 4.66 -2.02 5.32 -1 6 C-0.67 4.02 -0.34 2.04 0 0 Z " fill="#161B23" transform="translate(245,309)"/>
<path d="M0 0 C3.26011642 0.69378511 4.79038253 1.45893991 7 4 C6.67 4.99 6.34 5.98 6 7 C4.68 7 3.36 7 2 7 C2.08378906 7.56847656 2.16757813 8.13695312 2.25390625 8.72265625 C2.91700632 13.75046566 2.80659026 17.95881088 2 23 C2.33 23.99 2.66 24.98 3 26 C3.66 26 4.32 26 5 26 C5.33 25.34 5.66 24.68 6 24 C6.66 24.99 7.32 25.98 8 27 C8.66 27.33 9.32 27.66 10 28 C10 29.65 10 31.3 10 33 C8.64649406 32.37530495 7.3191582 31.69429379 6 31 C4.96875 30.5978125 3.9375 30.195625 2.875 29.78125 C1.27880859 28.70800781 1.27880859 28.70800781 0 27 C-0.78106697 22.4077972 -0.56102584 17.89110614 -0.375 13.25 C-0.34792969 11.98027344 -0.32085937 10.71054688 -0.29296875 9.40234375 C-0.2222359 6.26652094 -0.12356492 3.13411337 0 0 Z " fill="#29384F" transform="translate(253,225)"/>
<path d="M0 0 C0.66 0 1.32 0 2 0 C2.02505615 0.8470752 2.0501123 1.69415039 2.07592773 2.56689453 C2.17147857 5.73155558 2.27068566 8.89607563 2.37231445 12.06054688 C2.41543088 13.42606176 2.45712068 14.79162252 2.49731445 16.15722656 C2.55558554 18.1283719 2.61953736 20.09934668 2.68359375 22.0703125 C2.72025146 23.25383301 2.75690918 24.43735352 2.79467773 25.65673828 C2.98990218 28.83557719 3.41476502 31.87180449 4 35 C6.31 35.66 8.62 36.32 11 37 C11 37.66 11 38.32 11 39 C10.01 39 9.02 39 8 39 C8 40.32 8 41.64 8 43 C8.66 43 9.32 43 10 43 C9.67 43.99 9.34 44.98 9 46 C5.98921383 43.45579765 4.83397317 40.68308065 3.375 37.0625 C2.94960937 36.02222656 2.52421875 34.98195312 2.0859375 33.91015625 C0.37075192 29.3137057 -0.12092441 25.63597519 -0.09765625 20.703125 C-0.09443359 19.49785156 -0.09121094 18.29257813 -0.08789062 17.05078125 C-0.07951172 15.79652344 -0.07113281 14.54226562 -0.0625 13.25 C-0.05798828 11.98027344 -0.05347656 10.71054688 -0.04882812 9.40234375 C-0.03704556 6.26818164 -0.02059416 3.13411459 0 0 Z " fill="#324B66" transform="translate(253,174)"/>
<path d="M0 0 C0 0.99 0 1.98 0 3 C-16.5 3 -33 3 -50 3 C-49.67 2.34 -49.34 1.68 -49 1 C-42.34310529 0.85728752 -35.6862036 0.71490459 -29.02929688 0.57275391 C-26.76334472 0.52432779 -24.49739419 0.47582543 -22.23144531 0.42724609 C-18.97982193 0.35754813 -15.72819285 0.28812181 -12.4765625 0.21875 C-11.45881744 0.19687622 -10.44107239 0.17500244 -9.39248657 0.15246582 C-8.45166229 0.13244507 -7.51083801 0.11242432 -6.54150391 0.09179688 C-5.71099518 0.07403198 -4.88048645 0.05626709 -4.02481079 0.03796387 C-2.68338327 0.01281299 -1.34166328 0 0 0 Z " fill="#212B3D" transform="translate(329,171)"/>
<path d="M0 0 C1.63071503 2.86513183 2.23934172 4.83680175 2.13525391 8.12597656 C2.11508209 8.92650452 2.09491028 9.72703247 2.0741272 10.55181885 C2.04193085 11.40612488 2.0097345 12.26043091 1.9765625 13.140625 C1.95153656 14.02280701 1.92651062 14.90498901 1.90072632 15.81390381 C1.81867812 18.62633558 1.72203008 21.43804914 1.625 24.25 C1.56674491 26.15882501 1.50944196 28.06767933 1.453125 29.9765625 C1.31312189 34.65145334 1.16002495 39.32575342 1 44 C0.01 44.495 0.01 44.495 -1 45 C-1.02527124 38.75204325 -1.04283344 32.50409959 -1.05493164 26.25610352 C-1.05997298 24.12881986 -1.06680591 22.00153969 -1.07543945 19.87426758 C-1.08751379 16.82372174 -1.09323014 13.77322155 -1.09765625 10.72265625 C-1.10281754 9.76537125 -1.10797882 8.80808624 -1.11329651 7.8217926 C-1.11337204 6.94095505 -1.11344757 6.06011749 -1.11352539 5.15258789 C-1.115746 4.37315323 -1.11796661 3.59371857 -1.12025452 2.79066467 C-1 1 -1 1 0 0 Z " fill="#0D161D" transform="translate(273,273)"/>
<path d="M0 0 C1.2065625 0.0309375 1.2065625 0.0309375 2.4375 0.0625 C2.7675 0.7225 3.0975 1.3825 3.4375 2.0625 C2.4475 2.0625 1.4575 2.0625 0.4375 2.0625 C1.0975 2.7225 1.7575 3.3825 2.4375 4.0625 C3.0975 3.7325 3.7575 3.4025 4.4375 3.0625 C4.1075 4.0525 3.7775 5.0425 3.4375 6.0625 C1.7875 6.0625 0.1375 6.0625 -1.5625 6.0625 C-1.5625 13.3225 -1.5625 20.5825 -1.5625 28.0625 C-2.2225 27.7325 -2.8825 27.4025 -3.5625 27.0625 C-3.59136537 22.75001391 -3.60925255 18.43755238 -3.625 14.125 C-3.63337891 12.89330078 -3.64175781 11.66160156 -3.65039062 10.39257812 C-3.65361328 9.22275391 -3.65683594 8.05292969 -3.66015625 6.84765625 C-3.66539307 5.76363525 -3.67062988 4.67961426 -3.67602539 3.56274414 C-3.52127885 0.15465951 -3.41882186 0.0833859 0 0 Z " fill="#263E58" transform="translate(275.5625,167.9375)"/>
<path d="M0 0 C2.33524782 2.25740623 4.18705073 4.2805761 6 7 C6 9 6 11 6 13 C5.01 13.495 5.01 13.495 4 14 C3.34227572 17.02934491 3.34227572 17.02934491 3 20 C2.34 20 1.68 20 1 20 C1 14.72 1 9.44 1 4 C-2.3 4 -5.6 4 -9 4 C-8.67 3.34 -8.34 2.68 -8 2 C-5.67284 1.62599214 -3.33882138 1.29235267 -1 1 C-0.67 0.67 -0.34 0.34 0 0 Z " fill="#40668B" transform="translate(225,170)"/>
<path d="M0 0 C3.3 0 6.6 0 10 0 C9.67 0.99 9.34 1.98 9 3 C7.02 3.33 5.04 3.66 3 4 C2.34 9.28 1.68 14.56 1 20 C2.32 20.33 3.64 20.66 5 21 C5.33 21.66 5.66 22.32 6 23 C4.33388095 23.042721 2.66617115 23.04063832 1 23 C0 22 0 22 -0.11352539 19.86694336 C-0.10828857 18.95050049 -0.10305176 18.03405762 -0.09765625 17.08984375 C-0.09443359 16.10048828 -0.09121094 15.11113281 -0.08789062 14.09179688 C-0.07951172 13.05087891 -0.07113281 12.00996094 -0.0625 10.9375 C-0.05798828 9.89271484 -0.05347656 8.84792969 -0.04882812 7.77148438 C-0.03699927 5.18096546 -0.01906319 2.59047578 0 0 Z " fill="#28384E" transform="translate(280,180)"/>
<path d="M0 0 C0.74378906 0.0721875 1.48757812 0.144375 2.25390625 0.21875 C11.10379372 0.97104268 19.86079888 1.07548257 28.73852539 0.96289062 C34.58793069 0.91065931 40.19849916 1.23680153 46 2 C46 2.33 46 2.66 46 3 C31.15 3 16.3 3 1 3 C0.67 2.01 0.34 1.02 0 0 Z " fill="#6093B3" transform="translate(170,171)"/>
<path d="M0 0 C0.33 0.66 0.66 1.32 1 2 C1.66 2 2.32 2 3 2 C2 4 2 4 0 5 C-0.65213292 7.02463255 -0.65213292 7.02463255 -1 9 C-0.34 9 0.32 9 1 9 C0.67 10.32 0.34 11.64 0 13 C-0.33 13 -0.66 13 -1 13 C-1.33 16.3 -1.66 19.6 -2 23 C-2.33 23 -2.66 23 -3 23 C-3 18.05 -3 13.1 -3 8 C-3.66 8 -4.32 8 -5 8 C-5 6.02 -5 4.04 -5 2 C-3.35 1.34 -1.7 0.68 0 0 Z " fill="#62AACB" transform="translate(175,178)"/>
<path d="M0 0 C3 1 3 1 5 4 C4.67 4.99 4.34 5.98 4 7 C3.67 6.67 3.34 6.34 3 6 C2.67 12.27 2.34 18.54 2 25 C1.34 24.67 0.68 24.34 0 24 C0 16.08 0 8.16 0 0 Z " fill="#11141B" transform="translate(206,307)"/>
<path d="M0 0 C0.99 0.495 0.99 0.495 2 1 C2 1.99 2 2.98 2 4 C2.66 4.33 3.32 4.66 4 5 C5.01847486 6.99065541 6.01517978 8.99248185 7 11 C9.17689392 14.53745262 10.52887931 16.68591954 14 19 C14.66 17.68 15.32 16.36 16 15 C16.33 17.97 16.66 20.94 17 24 C8.59732553 19.79866277 3.71327608 11.41947946 0 3 C0 2.01 0 1.02 0 0 Z " fill="#2D4157" transform="translate(230,222)"/>
<path d="M0 0 C0.61359375 0.77085937 1.2271875 1.54171875 1.859375 2.3359375 C3.29458738 4.12209597 4.75882171 5.88529199 6.25 7.625 C8 10 8 10 8 13 C7.34 13 6.68 13 6 13 C5.54625 12.030625 5.0925 11.06125 4.625 10.0625 C3.34213779 6.92920418 3.34213779 6.92920418 1 6 C1.165 7.258125 1.33 8.51625 1.5 9.8125 C2.11073012 15.2144509 2.09133564 20.57060338 2 26 C-0.23413013 22.64880481 -0.23847762 21.5822245 -0.1953125 17.67578125 C-0.18886719 16.64775391 -0.18242187 15.61972656 -0.17578125 14.56054688 C-0.15064453 12.95276367 -0.15064453 12.95276367 -0.125 11.3125 C-0.11597656 10.22904297 -0.10695312 9.14558594 -0.09765625 8.02929688 C-0.0740734 5.3526429 -0.04116126 2.67643203 0 0 Z " fill="#293B50" transform="translate(227,233)"/>
<path d="M0 0 C0 3.96 0 7.92 0 12 C-1.03125 11.0925 -2.0625 10.185 -3.125 9.25 C-6.27495425 6.54270734 -9.49498873 4.22269007 -13 2 C-9.71023192 0.90341064 -8.28696233 1.20046862 -5 2 C-5 2.99 -5 3.98 -5 5 C-4.34 5.33 -3.68 5.66 -3 6 C-3.33 4.35 -3.66 2.7 -4 1 C-2 0 -2 0 0 0 Z " fill="#141A1F" transform="translate(319,207)"/>
<path d="M0 0 C6.26418531 1.48362284 10.91513505 5.24162156 16 9 C14.1875 9.625 14.1875 9.625 12 10 C11.01 9.34 10.02 8.68 9 8 C8.01 8.66 7.02 9.32 6 10 C5.34 8.68 4.68 7.36 4 6 C3.34 6 2.68 6 2 6 C1.34 4.02 0.68 2.04 0 0 Z " fill="#243447" transform="translate(270,238)"/>
<path d="M0 0 C1.98 0.495 1.98 0.495 4 1 C4.125 6.75 4.125 6.75 3 9 C6.86763446 10.87543354 6.86763446 10.87543354 11 10 C10.67 10.99 10.34 11.98 10 13 C6.37 12.67 2.74 12.34 -1 12 C-0.73958333 9.75390625 -0.47916667 7.5078125 -0.21875 5.26171875 C0.04813463 2.88103445 0.04813463 2.88103445 0 0 Z " fill="#62ACD4" transform="translate(172,160)"/>
<path d="M0 0 C0.99 0.495 0.99 0.495 2 1 C2.625 4.0625 2.625 4.0625 3 7 C5.31 7.66 7.62 8.32 10 9 C10 9.66 10 10.32 10 11 C9.01 11 8.02 11 7 11 C7 12.32 7 13.64 7 15 C7.66 15 8.32 15 9 15 C8.67 15.99 8.34 16.98 8 18 C4.9752109 15.44533941 3.79379389 12.62983727 2.3125 9 C1.87550781 7.948125 1.43851563 6.89625 0.98828125 5.8125 C0 3 0 3 0 0 Z " fill="#2B4158" transform="translate(254,202)"/>
<path d="M0 0 C0 3 0 3 -1.1875 4.75 C-3 6 -3 6 -5.375 5.8125 C-7.98579184 5.00439776 -10.48841881 4.07639194 -13 3 C-8.50235477 -1.63819664 -5.96030685 -1.2122658 0 0 Z " fill="#1C2635" transform="translate(311,202)"/>
<path d="M0 0 C0 0.99 0 1.98 0 3 C-8.25 3 -16.5 3 -25 3 C-21.8853069 0.92353793 -20.97458235 0.72460308 -17.40234375 0.5859375 C-16.07686523 0.52792969 -16.07686523 0.52792969 -14.72460938 0.46875 C-13.80486328 0.4378125 -12.88511719 0.406875 -11.9375 0.375 C-11.01388672 0.33632812 -10.09027344 0.29765625 -9.13867188 0.2578125 C-2.83607701 0 -2.83607701 0 0 0 Z " fill="#161B21" transform="translate(329,171)"/>
<path d="M0 0 C1.98 0.495 1.98 0.495 4 1 C4 1.99 4 2.98 4 4 C3.34 4 2.68 4 2 4 C2.99 5.98 3.98 7.96 5 10 C4.01 10 3.02 10 2 10 C2.33 12.31 2.66 14.62 3 17 C2.34 17.33 1.68 17.66 1 18 C0.63737003 15.56348622 0.28461036 13.12623023 -0.0625 10.6875 C-0.2181543 9.65206055 -0.2181543 9.65206055 -0.37695312 8.59570312 C-0.83808836 5.30415164 -1.06594625 3.19783876 0 0 Z " fill="#141821" transform="translate(307,288)"/>
<path d="M0 0 C-1.38866323 0.9893091 -2.78629851 1.96603078 -4.1875 2.9375 C-4.96480469 3.48277344 -5.74210937 4.02804687 -6.54296875 4.58984375 C-9.07950299 6.0456289 -11.1218182 6.59613435 -14 7 C-13.67 6.401875 -13.34 5.80375 -13 5.1875 C-11.79212012 2.94613529 -11.79212012 2.94613529 -12 0 C-11.01 0.33 -10.02 0.66 -9 1 C-1.95505618 -0.97752809 -1.95505618 -0.97752809 0 0 Z " fill="#12181F" transform="translate(313,337)"/>
<path d="M0 0 C1.32 0.66 2.64 1.32 4 2 C4 4.31 4 6.62 4 9 C2.68 8.34 1.36 7.68 0 7 C-0.99 8.32 -1.98 9.64 -3 11 C-3.66 10.67 -4.32 10.34 -5 10 C-2.25 4.125 -2.25 4.125 0 3 C0 2.01 0 1.02 0 0 Z " fill="#14181F" transform="translate(307,307)"/>
<path d="M0 0 C3.63 1.32 7.26 2.64 11 4 C5.83363353 6.58318323 2.62102204 7.44540567 -3 6 C-2.01 5.67 -1.02 5.34 0 5 C0 3.35 0 1.7 0 0 Z " fill="#151A22" transform="translate(219,320)"/>
<path d="M0 0 C0.33 0.66 0.66 1.32 1 2 C1.66 2 2.32 2 3 2 C3.33 1.34 3.66 0.68 4 0 C4.66 0.99 5.32 1.98 6 3 C6.66 3.33 7.32 3.66 8 4 C8 5.65 8 7.3 8 9 C4.4213696 7.34832443 1.25179812 5.21713508 -2 3 C-1.34 2.67 -0.68 2.34 0 2 C0 1.34 0 0.68 0 0 Z " fill="#202B4A" transform="translate(255,249)"/>
<path d="M0 0 C2.64 0.33 5.28 0.66 8 1 C8.33 2.32 8.66 3.64 9 5 C5.7 4.67 2.4 4.34 -1 4 C-0.67 2.68 -0.34 1.36 0 0 Z " fill="#1B2733" transform="translate(260,267)"/>
<path d="M0 0 C0.99 0.495 0.99 0.495 2 1 C2 1.66 2 2.32 2 3 C2.66 3 3.32 3 4 3 C4.639375 3.804375 5.27875 4.60875 5.9375 5.4375 C7.81035932 8.23720732 7.81035932 8.23720732 11 9 C11.33 8.34 11.66 7.68 12 7 C12 8.65 12 10.3 12 12 C8.20405883 11.43573848 6.41289367 9.81748138 3.75 7.125 C3.04359375 6.42632812 2.3371875 5.72765625 1.609375 5.0078125 C0 3 0 3 0 0 Z " fill="#202E47" transform="translate(262,219)"/>
<path d="M0 0 C0.9075 0.309375 1.815 0.61875 2.75 0.9375 C5.16563338 1.7272263 7.52780285 2.42949297 10 3 C10 3.66 10 4.32 10 5 C10.99 5.33 11.98 5.66 13 6 C12.34 6.66 11.68 7.32 11 8 C10.01 7.34 9.02 6.68 8 6 C6.7625 5.505 6.7625 5.505 5.5 5 C3 4 3 4 0 2 C0 1.34 0 0.68 0 0 Z " fill="#171F2A" transform="translate(305,184)"/>
<path d="M0 0 C0 0.99 0 1.98 0 3 C-1.32 3 -2.64 3 -4 3 C-4.33 5.97 -4.66 8.94 -5 12 C-5.33 12 -5.66 12 -6 12 C-7.64566929 6.71653543 -7.64566929 6.71653543 -8 4 C-6.14158018 0.96784134 -3.57123862 0 0 0 Z " fill="#89ACAF" transform="translate(176,150)"/>
<path d="M0 0 C1.98 0.495 1.98 0.495 4 1 C4 2.98 4 4.96 4 7 C2.02 7.99 2.02 7.99 0 9 C-1.10844919 5.67465243 -0.84454356 3.37817425 0 0 Z " fill="#3D6C98" transform="translate(228,192)"/>
<path d="M0 0 C0.66 0 1.32 0 2 0 C2.22162329 1.62324086 2.42689803 3.248721 2.625 4.875 C2.74101562 5.77992188 2.85703125 6.68484375 2.9765625 7.6171875 C2.98429688 8.40351563 2.99203125 9.18984375 3 10 C2.34 10.66 1.68 11.32 1 12 C0.01 11.67 -0.98 11.34 -2 11 C-1.855625 10.484375 -1.71125 9.96875 -1.5625 9.4375 C-0.84190099 6.31490429 -0.42733561 3.17449308 0 0 Z " fill="#13171E" transform="translate(245,309)"/>
<path d="M0 0 C0.66 0.33 1.32 0.66 2 1 C1.23997083 2.31878578 0.46656347 3.6298684 -0.3125 4.9375 C-0.74175781 5.66839844 -1.17101562 6.39929688 -1.61328125 7.15234375 C-3 9 -3 9 -6 10 C-6 9.34 -6 8.68 -6 8 C-6.66 7.67 -7.32 7.34 -8 7 C-7.67 6.34 -7.34 5.68 -7 5 C-6.38125 4.87625 -5.7625 4.7525 -5.125 4.625 C-2.32606997 3.80178529 -1.54719585 2.39815356 0 0 Z " fill="#0F151C" transform="translate(321,325)"/>
<path d="M0 0 C1.98 0 3.96 0 6 0 C4.25 5.75 4.25 5.75 2 8 C0.74335022 5.09399739 0 3.20395416 0 0 Z " fill="#13191F" transform="translate(321,316)"/>
<path d="M0 0 C0.99 0.33 1.98 0.66 3 1 C2.67 1.66 2.34 2.32 2 3 C2.99 3.99 3.98 4.98 5 6 C4.34 6.66 3.68 7.32 3 8 C1.35 7.01 -0.3 6.02 -2 5 C-1.34 3.35 -0.68 1.7 0 0 Z " fill="#1F2E3C" transform="translate(268,256)"/>
<path d="M0 0 C0.99 0.33 1.98 0.66 3 1 C2.67 7.27 2.34 13.54 2 20 C1.67 20 1.34 20 1 20 C0.67 13.4 0.34 6.8 0 0 Z " fill="#203347" transform="translate(272,195)"/>
<path d="M0 0 C3.63 2.31 7.26 4.62 11 7 C7 8 7 8 5.078125 6.85546875 C4.47484375 6.30503906 3.8715625 5.75460938 3.25 5.1875 C2.63640625 4.64480469 2.0228125 4.10210937 1.390625 3.54296875 C0 2 0 2 0 0 Z " fill="#212B38" transform="translate(275,240)"/>
<path d="M0 0 C1.65 1.32 3.3 2.64 5 4 C4.67 4.99 4.34 5.98 4 7 C2.68 6.67 1.36 6.34 0 6 C-1.125 2.25 -1.125 2.25 0 0 Z " fill="#2B4663" transform="translate(255,225)"/>
<path d="M0 0 C0.66 0.99 1.32 1.98 2 3 C1 4 1 4 -1.28515625 4.09765625 C-2.65994141 4.08025391 -2.65994141 4.08025391 -4.0625 4.0625 C-4.98160156 4.05347656 -5.90070313 4.04445312 -6.84765625 4.03515625 C-7.55792969 4.02355469 -8.26820313 4.01195312 -9 4 C-8.67 3.34 -8.34 2.68 -8 2 C-5.67284 1.62599214 -3.33882138 1.29235267 -1 1 C-0.67 0.67 -0.34 0.34 0 0 Z " fill="#4B7299" transform="translate(225,170)"/>
<path d="M0 0 C1.9375 0.3125 1.9375 0.3125 4 1 C4.33 1.99 4.66 2.98 5 4 C3.35 4.66 1.7 5.32 0 6 C0 4.02 0 2.04 0 0 Z " fill="#1D2933" transform="translate(253,260)"/>
<path d="M0 0 C0 3.3 0 6.6 0 10 C-2.71843438 6.37542083 -3.41789544 5.19115285 -4 1 C-2 0 -2 0 0 0 Z " fill="#181F29" transform="translate(319,207)"/>
<path d="M0 0 C0.66 0 1.32 0 2 0 C3.2890625 1.42578125 3.2890625 1.42578125 4.625 3.3125 C5.07101563 3.92738281 5.51703125 4.54226562 5.9765625 5.17578125 C7 7 7 7 7 10 C6.34 10 5.68 10 5 10 C4.54625 9.030625 4.0925 8.06125 3.625 7.0625 C2.34213779 3.92920418 2.34213779 3.92920418 0 3 C0 2.01 0 1.02 0 0 Z " fill="#2C3E5B" transform="translate(228,236)"/>
<path d="M0 0 C3.36720387 1.39332574 4.9859524 2.9789286 7 6 C6.01 6.33 5.02 6.66 4 7 C1 5 1 5 0.3125 2.375 C0.209375 1.59125 0.10625 0.8075 0 0 Z " fill="#12171E" transform="translate(312,264)"/>
<path d="M0 0 C0.33 0 0.66 0 1 0 C1 3.63 1 7.26 1 11 C0.67 10.34 0.34 9.68 0 9 C-0.66 9 -1.32 9 -2 9 C-1.41196203 5.97580475 -0.77321882 2.98241547 0 0 Z " fill="#4478A6" transform="translate(218,181)"/>
<path d="M0 0 C0.66 1.32 1.32 2.64 2 4 C-0.475 5.485 -0.475 5.485 -3 7 C-3.1875 4.625 -3.1875 4.625 -3 2 C-2.01 1.34 -1.02 0.68 0 0 Z " fill="#131823" transform="translate(301,318)"/>
<path d="M0 0 C0.66 0 1.32 0 2 0 C2.33 1.32 2.66 2.64 3 4 C1.68 4.99 0.36 5.98 -1 7 C-1.66 5.68 -2.32 4.36 -3 3 C-2.01 2.34 -1.02 1.68 0 1 C0 0.67 0 0.34 0 0 Z " fill="#121920" transform="translate(324,281)"/>
<path d="M0 0 C2.25076614 3.37614921 2 5.06731665 2 9 C1.01 9.33 0.02 9.66 -1 10 C-1.02689216 8.52093108 -1.04634621 7.04172517 -1.0625 5.5625 C-1.07410156 4.73878906 -1.08570313 3.91507813 -1.09765625 3.06640625 C-1 1 -1 1 0 0 Z " fill="#44729B" transform="translate(229,174)"/>
<path d="M0 0 C3.91402949 1.26941497 5.79072873 2.51167694 8 6 C5.0280615 4.87548273 2.66559313 3.77706209 0 2 C0 1.34 0 0.68 0 0 Z " fill="#11151B" transform="translate(212,338)"/>
<path d="M0 0 C0.45375 0.474375 0.9075 0.94875 1.375 1.4375 C2.93258204 3.09027808 2.93258204 3.09027808 5 4 C4.01 5.485 4.01 5.485 3 7 C1.68 6.01 0.36 5.02 -1 4 C-0.67 2.68 -0.34 1.36 0 0 Z " fill="#26384F" transform="translate(258,249)"/>
<path d="M0 0 C0 0.66 0 1.32 0 2 C-0.99 2 -1.98 2 -3 2 C-3.33 2.66 -3.66 3.32 -4 4 C-4.66 2.68 -5.32 1.36 -6 0 C-3.50907189 -1.24546405 -2.58919267 -0.7767578 0 0 Z " fill="#2D4A6F" transform="translate(264,211)"/>
<path d="M0 0 C1.2065625 0.0309375 1.2065625 0.0309375 2.4375 0.0625 C2.7675 0.7225 3.0975 1.3825 3.4375 2.0625 C2.4475 2.0625 1.4575 2.0625 0.4375 2.0625 C0.4375 2.7225 0.4375 3.3825 0.4375 4.0625 C-0.5525 4.0625 -1.5425 4.0625 -2.5625 4.0625 C-2.8925 3.0725 -3.2225 2.0825 -3.5625 1.0625 C-2.5625 0.0625 -2.5625 0.0625 0 0 Z " fill="#294561" transform="translate(275.5625,167.9375)"/>
<path d="M0 0 C2.64 0 5.28 0 8 0 C8 0.33 8 0.66 8 1 C5.36 1 2.72 1 0 1 C0 0.67 0 0.34 0 0 Z " fill="#000000" transform="translate(261,349)"/>
<path d="M0 0 C1.65 0 3.3 0 5 0 C5 0.33 5 0.66 5 1 C3.35 1 1.7 1 0 1 C0 0.67 0 0.34 0 0 Z " fill="#89929C" transform="translate(173,175)"/>
<path d="M0 0 C4 1 4 1 4 1 Z " fill="#000000" transform="translate(254,349)"/>
<path d="M0 0 C1 4 1 4 1 4 Z " fill="#000000" transform="translate(248,215)"/>
<path d="M0 0 C3 1 3 1 3 1 Z " fill="#000000" transform="translate(280,349)"/>
<path d="M0 0 C0.66 0.66 1.32 1.32 2 2 C1.34 2 0.68 2 0 2 C0 1.34 0 0.68 0 0 Z " fill="#000000" transform="translate(228,319)"/>
<path d="M0 0 C2 1 2 1 2 1 Z " fill="#000000" transform="translate(251,349)"/>
<path d="" fill="#000000" transform="translate(0,0)"/>
<path d="" fill="#000000" transform="translate(0,0)"/>
<path d="" fill="#000000" transform="translate(0,0)"/>
<path d="" fill="#000000" transform="translate(0,0)"/>
<path d="" fill="#000000" transform="translate(0,0)"/>
<path d="" fill="#000000" transform="translate(0,0)"/>
<path d="" fill="#000000" transform="translate(0,0)"/>
<path d="" fill="#000000" transform="translate(0,0)"/>
<path d="" fill="#000000" transform="translate(0,0)"/>
<path d="" fill="#000000" transform="translate(0,0)"/>
<path d="" fill="#000000" transform="translate(0,0)"/>
<path d="" fill="#000000" transform="translate(0,0)"/>
<path d="" fill="#000000" transform="translate(0,0)"/>
<path d="" fill="#000000" transform="translate(0,0)"/>
<path d="" fill="#000000" transform="translate(0,0)"/>
<path d="" fill="#000000" transform="translate(0,0)"/>
<path d="" fill="#000000" transform="translate(0,0)"/>
<path d="" fill="#000000" transform="translate(0,0)"/>
<path d="" fill="#000000" transform="translate(0,0)"/>
</svg>
