<?xml version="1.0" encoding="UTF-8"?>
<svg version="1.1" xmlns="http://www.w3.org/2000/svg" width="185" height="140">
<path d="M0 0 C1.16105255 0.00007553 2.3221051 0.00015106 3.51834106 0.00022888 C4.77669769 0.00539017 6.03505432 0.01055145 7.33154297 0.01586914 C8.61608368 0.01728409 9.90062439 0.01869904 11.22409058 0.02015686 C14.64029889 0.02397628 18.05646473 0.03380166 21.47265625 0.04486084 C24.95816473 0.05508732 28.44368006 0.05965713 31.92919922 0.06469727 C38.76906042 0.07542444 45.60889341 0.09249397 52.44873047 0.11352539 C52.94373047 1.59852539 52.94373047 1.59852539 53.44873047 3.11352539 C52.92923828 3.56083008 52.40974609 4.00813477 51.87451172 4.46899414 C51.17712891 5.07356445 50.47974609 5.67813477 49.76123047 6.30102539 C49.07673828 6.89270508 48.39224609 7.48438477 47.68701172 8.09399414 C45.35033969 10.08443356 45.35033969 10.08443356 43.42724609 12.70922852 C39.1851637 16.13349306 35.84762209 15.75113917 30.55419922 15.60180664 C29.60684402 15.5947319 28.65948883 15.58765717 27.6834259 15.58036804 C24.66688025 15.55244873 21.65221207 15.48971454 18.63623047 15.42602539 C16.58742921 15.40093935 14.53859876 15.37812672 12.48974609 15.35766602 C7.47535426 15.30262998 2.46236033 15.21637395 -2.55126953 15.11352539 C-2.27412109 15.7284082 -1.99697266 16.34329102 -1.71142578 16.97680664 C-1.16808594 18.18916992 -1.16808594 18.18916992 -0.61376953 19.42602539 C-0.25412109 20.2265332 0.10552734 21.02704102 0.47607422 21.85180664 C1.44873047 24.11352539 1.44873047 24.11352539 2.44873047 27.11352539 C8.69754183 30.59591195 16.04125714 30.72353059 23.01123047 30.80102539 C24.00058594 30.85452148 24.98994141 30.90801758 26.00927734 30.96313477 C31.78774733 31.03598873 34.8864684 30.35624207 39.10107422 26.25805664 C41.3119698 23.78722262 42.39116518 22.28622126 43.44873047 19.11352539 C44.10873047 19.11352539 44.76873047 19.11352539 45.44873047 19.11352539 C45.44873047 18.45352539 45.44873047 17.79352539 45.44873047 17.11352539 C46.10873047 17.11352539 46.76873047 17.11352539 47.44873047 17.11352539 C47.44873047 16.45352539 47.44873047 15.79352539 47.44873047 15.11352539 C49.25045136 13.38039794 51.17823628 11.84053884 53.11279297 10.25805664 C55.39718604 8.30226874 55.39718604 8.30226874 56.69431496 6.40401363 C60.29452389 1.51326456 60.29452389 1.51326456 63.33503342 0.4602375 C65.52959429 0.21471943 67.63295861 0.18133746 69.84082031 0.22705078 C70.6609964 0.21627502 71.48117249 0.20549927 72.32620239 0.19439697 C75.02161791 0.16711372 77.71424587 0.18883811 80.40966797 0.21118164 C82.28441092 0.2017939 84.15914079 0.18933447 86.03384399 0.17393494 C90.95616983 0.14172692 95.87756342 0.15114487 100.79992676 0.16931152 C105.82749612 0.18047443 110.8548274 0.15216119 115.88232422 0.12719727 C125.73795933 0.08406366 135.59306071 0.08491545 145.44873047 0.11352539 C144.54800201 4.63373422 141.98480916 7.61785863 139.19873047 11.17602539 C133.83285353 18.16007894 128.80195222 25.32292236 123.90283203 32.64111328 C123.39333008 33.3977124 122.88382813 34.15431152 122.35888672 34.93383789 C121.91681885 35.59657715 121.47475098 36.25931641 121.01928711 36.94213867 C120.50100342 37.65869629 119.98271973 38.37525391 119.44873047 39.11352539 C118.75424805 40.17764648 118.05976563 41.24176758 117.34423828 42.33813477 C115.7521285 44.21169873 114.85597717 45.00702024 112.46043396 45.6335144 C110.021638 45.8081073 107.65386706 45.78857262 105.21044922 45.69946289 C104.32968216 45.69097321 103.4489151 45.68248352 102.54145813 45.67373657 C99.73845172 45.64024695 96.93836162 45.56497993 94.13623047 45.48852539 C92.23197525 45.45841987 90.32767477 45.43104509 88.42333984 45.40649414 C83.76401937 45.34047059 79.10686868 45.23698267 74.44873047 45.11352539 C74.46871597 45.86219376 74.48870148 46.61086212 74.5092926 47.38221741 C74.6900699 54.45821834 74.82686638 61.53341222 74.91504002 68.61107731 C74.9618994 72.2495373 75.02537913 75.88608073 75.12768555 79.5234375 C75.22591023 83.03790848 75.27937269 86.55054413 75.30262566 90.06628227 C75.32720707 92.0514834 75.39740397 94.03595126 75.46839905 96.02003479 C75.47333765 104.88870096 75.47333765 104.88870096 72.50250244 108.44006348 C70.22882401 110.2179557 67.94398142 111.67064332 65.44873047 113.11352539 C64.31639251 114.01295307 63.1992929 114.93266876 62.11279297 115.88696289 C61.61142822 116.31477051 61.11006348 116.74257812 60.59350586 117.18334961 C59.84121704 117.82941162 59.84121704 117.82941162 59.07373047 118.48852539 C54.04346145 122.77728065 48.96360225 126.9973139 43.83154297 131.16430664 C41.82317912 132.80721412 39.85102248 134.48174822 37.88623047 136.17602539 C35.44873047 138.11352539 35.44873047 138.11352539 33.44873047 138.11352539 C33.44873047 112.70352539 33.44873047 87.29352539 33.44873047 61.11352539 C34.10873047 61.11352539 34.76873047 61.11352539 35.44873047 61.11352539 C35.68970459 60.54585449 35.93067871 59.97818359 36.17895508 59.39331055 C37.7029523 56.65708943 39.52651339 54.82720732 41.76513672 52.63696289 C43.03454102 51.38399414 43.03454102 51.38399414 44.32958984 50.10571289 C45.21453125 49.24204102 46.09947266 48.37836914 47.01123047 47.48852539 C48.76470429 45.76938354 50.51611622 44.04813526 52.26513672 42.32446289 C53.0431665 41.56439941 53.82119629 40.80433594 54.62280273 40.02124023 C56.50959175 38.23794914 56.50959175 38.23794914 57.44873047 36.11352539 C58.10873047 36.11352539 58.76873047 36.11352539 59.44873047 36.11352539 C59.91279297 35.15446289 59.91279297 35.15446289 60.38623047 34.17602539 C61.44873047 32.11352539 61.44873047 32.11352539 62.44873047 31.11352539 C63.95291786 31.0204065 65.46144403 30.99606511 66.96850586 31 C68.4098867 31.0001133 68.4098867 31.0001133 69.88038635 31.00022888 C71.44755653 31.00797081 71.44755653 31.00797081 73.04638672 31.01586914 C74.11038193 31.01728409 75.17437714 31.01869904 76.27061462 31.02015686 C79.6841813 31.02577475 83.09768347 31.03833028 86.51123047 31.05102539 C88.81917223 31.05603809 91.12711502 31.06060139 93.43505859 31.06469727 C99.10630473 31.07574999 104.77751299 31.09250552 110.44873047 31.11352539 C109.8617424 29.50672456 109.26068298 27.90506 108.65380859 26.30566406 C108.32062622 25.4132048 107.98744385 24.52074554 107.64416504 23.60124207 C106.04807947 20.27976485 104.29224319 18.63272853 101.06201172 16.9284668 C95.20389386 15.10163595 89.02944292 15.32458851 82.94873047 15.30102539 C81.53983818 15.27784642 80.13098018 15.25247408 78.72216797 15.22485352 C75.29740482 15.16621031 71.87391353 15.12975999 68.44873047 15.11352539 C68.44873047 15.77352539 68.44873047 16.43352539 68.44873047 17.11352539 C67.78873047 17.11352539 67.12873047 17.11352539 66.44873047 17.11352539 C66.18535889 17.70359375 65.9219873 18.29366211 65.65063477 18.90161133 C64.39671395 21.20925354 63.09677786 22.68079933 61.21826172 24.50415039 C60.2652417 25.43976807 60.2652417 25.43976807 59.29296875 26.39428711 C58.2872583 27.36906006 58.2872583 27.36906006 57.26123047 28.36352539 C52.09618128 33.44022021 47.09204168 38.5481382 42.44873047 44.11352539 C40.49649058 46.06576528 36.75091918 45.29796154 34.08325195 45.31884766 C33.31257385 45.32874725 32.54189575 45.33864685 31.74786377 45.34884644 C29.188549 45.3805524 26.62921564 45.4052546 24.06982422 45.42993164 C22.30004887 45.45049333 20.53027853 45.47148958 18.76051331 45.49290466 C14.09327227 45.54820649 9.42598633 45.59757985 4.75866699 45.64575195 C-0.00028499 45.69590792 -4.75917144 45.75162473 -9.51806641 45.80688477 C-18.86241151 45.91456547 -28.20681343 46.01598827 -37.55126953 46.11352539 C-37.55126953 41.74968388 -34.94525243 39.35634445 -32.36376953 36.05102539 C-31.26339148 34.6133088 -30.16448802 33.17446267 -29.06689453 31.73461914 C-28.49132813 30.98164551 -27.91576172 30.22867188 -27.32275391 29.45288086 C-24.36455495 25.54639487 -21.48535242 21.58390919 -18.61376953 17.61352539 C-18.08307861 16.88512451 -17.5523877 16.15672363 -17.00561523 15.40625 C-14.01119695 11.26330069 -11.22624776 7.06550187 -8.62719727 2.66235352 C-6.39661567 -0.54863119 -3.61775165 -0.00783063 0 0 Z M52.85424805 66.07714844 C49.6623747 70.106107 49.79638423 72.71428749 49.96044922 77.69555664 C49.96752396 78.50973557 49.97459869 79.32391449 49.98188782 80.1627655 C50.00977449 82.75147182 50.07249731 85.33797812 50.13623047 87.92602539 C50.16132097 89.68575967 50.18413283 91.44552802 50.20458984 93.20532227 C50.25958175 97.50889836 50.34581055 101.81083949 50.44873047 106.11352539 C55.27773411 103.59845605 55.27773411 103.59845605 58.07443237 99.23031616 C58.2580734 96.96881521 58.23683989 94.79810775 58.13232422 92.53149414 C58.11746727 91.31022575 58.11746727 91.31022575 58.10231018 90.06428528 C58.06325507 87.47466558 57.97546658 84.88935359 57.88623047 82.30102539 C57.85110437 80.54132119 57.81916761 78.78155023 57.79052734 77.02172852 C57.71352423 72.71734521 57.59281678 68.41616439 57.44873047 64.11352539 C55.17222275 63.91236279 55.17222275 63.91236279 52.85424805 66.07714844 Z " fill="#FEFEFE" transform="translate(39.55126953125,1.886474609375)"/>
<path d="M0 0 C0 0.99 0 1.98 0 3 C-0.66 2.67 -1.32 2.34 -2 2 C-1.34 1.34 -0.68 0.68 0 0 Z " fill="#FFFFFF" transform="translate(90,7)"/>
<path d="" fill="#FFFFFF" transform="translate(0,0)"/>
<path d="" fill="#FFFFFF" transform="translate(0,0)"/>
</svg>
