<?xml version="1.0" encoding="UTF-8"?>
<svg version="1.1" xmlns="http://www.w3.org/2000/svg" width="225" height="207">
<path d="M0 0 C4.55910412 -0.12835916 9.10327837 -0.30573464 13.65425968 -0.61073685 C45.8045401 -2.71108833 45.8045401 -2.71108833 57.92403507 7.5103569 C64.79384013 13.7038137 71.26031084 20.72937677 76.33370304 28.48106003 C76.33370304 29.47106003 76.33370304 30.46106003 76.33370304 31.48106003 C72.66360244 32.63898478 69.210947 32.59494666 65.38057804 32.57871628 C64.72035648 32.57730133 64.06013493 32.57588638 63.37990665 32.57442856 C61.2811251 32.56885248 59.1824521 32.55630449 57.08370304 32.54356003 C55.65662125 32.53854193 54.22953779 32.53397957 52.80245304 32.52988815 C49.31283472 32.51889091 45.82327948 32.50164283 42.33370304 32.48106003 C42.20995304 31.86231003 42.08620304 31.24356003 41.95870304 30.60606003 C41.46172948 28.28985171 41.46172948 28.28985171 39.33370304 26.48106003 C37.27463107 26.15108556 37.27463107 26.15108556 34.88399601 26.16221237 C33.96319248 26.14234268 33.04238895 26.12247299 32.09368229 26.10200119 C31.09781101 26.09044998 30.10193974 26.07889877 29.07589054 26.06699753 C27.54860828 26.0379483 27.54860828 26.0379483 25.99047184 26.00831223 C22.72996815 25.94840648 19.46942937 25.90208704 16.20870304 25.85606003 C14.00165617 25.81789038 11.79462435 25.77883925 9.58760929 25.73887253 C4.16976245 25.64269589 -1.24815413 25.55870556 -6.66629696 25.48106003 C-6.17129696 32.41106003 -6.17129696 32.41106003 -5.66629696 39.48106003 C-2.54668514 39.46534958 -2.54668514 39.46534958 0.63594913 39.44932175 C7.49712115 39.41622501 14.35829663 39.39410759 21.21952724 39.37743568 C25.38067557 39.36698557 29.5417423 39.35280411 33.70284367 39.33018112 C37.71636733 39.30849632 41.72981237 39.29650066 45.74339008 39.29130554 C47.2768474 39.28760191 48.81030028 39.28036992 50.34372425 39.26959991 C52.48680105 39.25514274 54.6295504 39.25307962 56.77266788 39.25400925 C58.60467243 39.24734741 58.60467243 39.24734741 60.47368717 39.24055099 C63.33370304 39.48106003 63.33370304 39.48106003 65.33370304 41.48106003 C63.93786971 42.87689336 62.54203637 44.27272669 61.14620304 45.66856003 C60.32635929 46.48969284 59.50651554 47.31082565 58.66182804 48.15684128 C57.34430085 49.47215785 56.02367964 50.78444007 54.69307804 52.08652878 C52.59340699 54.14192965 50.9782803 56.01419414 49.33370304 58.48106003 C48.67370304 58.48106003 48.01370304 58.48106003 47.33370304 58.48106003 C47.33370304 59.14106003 47.33370304 59.80106003 47.33370304 60.48106003 C45.95435594 61.66794009 44.57086301 62.85215783 43.13448429 63.96934128 C40.71674802 65.99898106 38.54912649 68.23281549 36.33370304 70.48106003 C32.66703637 74.14772669 29.00036971 77.81439336 25.33370304 81.48106003 C24.59635929 82.21969284 23.85901554 82.95832565 23.09932804 83.71934128 C20.64571717 86.16948659 18.1857385 88.61297561 15.72432804 91.05527878 C14.01072318 92.75964232 12.29718322 94.46407113 10.58370304 96.16856003 C9.27079288 97.46890182 9.27079288 97.46890182 7.93135929 98.79551315 C7.09991398 99.62373581 6.26846867 100.45195847 5.41182804 101.30527878 C4.65289249 102.05897751 3.89395695 102.81267624 3.11202335 103.58921432 C1.27198052 105.36555008 1.27198052 105.36555008 0.33370304 107.48106003 C-0.32629696 107.48106003 -0.98629696 107.48106003 -1.66629696 107.48106003 C-1.66629696 108.14106003 -1.66629696 108.80106003 -1.66629696 109.48106003 C-3.31632524 110.83492938 -4.98373566 112.16784145 -6.66629696 113.48106003 C-6.99629696 114.14106003 -7.32629696 114.80106003 -7.66629696 115.48106003 C-8.32629696 115.48106003 -8.98629696 115.48106003 -9.66629696 115.48106003 C-9.66629696 116.14106003 -9.66629696 116.80106003 -9.66629696 117.48106003 C-11.20535946 118.96152878 -11.20535946 118.96152878 -13.29129696 120.66856003 C-16.64113496 123.50530664 -19.43361348 126.45371447 -22.21317196 129.83652878 C-24.45856708 132.37768831 -27.00346347 134.38883372 -29.66629696 136.48106003 C-30.50750692 132.82407468 -30.79270407 129.44612507 -30.79569149 125.69688034 C-30.79884365 124.55930283 -30.80199581 123.42172531 -30.80524349 122.24967575 C-30.80321926 121.03181381 -30.80119503 119.81395187 -30.79910946 118.55918503 C-30.80006618 117.30345688 -30.80102291 116.04772873 -30.80200863 114.75394821 C-30.80268838 112.1045192 -30.80135177 109.45518281 -30.79666805 106.80576706 C-30.79094778 103.40373825 -30.79426854 100.00178795 -30.80024052 96.59976196 C-30.80471049 93.35706677 -30.80158759 90.11438124 -30.79910946 86.87168503 C-30.80113369 85.64572617 -30.80315792 84.4197673 -30.80524349 83.15665817 C-30.80209133 82.0316893 -30.79893917 80.90672043 -30.79569149 79.74766159 C-30.7948959 78.75236435 -30.7941003 77.75706711 -30.7932806 76.73160934 C-30.66629696 74.48106003 -30.66629696 74.48106003 -29.66629696 73.48106003 C-27.8855845 73.3937978 -26.10146556 73.37406962 -24.31864071 73.38340378 C-23.23905087 73.38662643 -22.15946102 73.38984909 -21.04715633 73.3931694 C-19.34269344 73.40573776 -19.34269344 73.40573776 -17.60379696 73.41856003 C-15.89353329 73.42532761 -15.89353329 73.42532761 -14.14871883 73.4322319 C-11.32119345 73.44406255 -8.49377056 73.46054593 -5.66629696 73.48106003 C-5.33629696 74.47106003 -5.00629696 75.46106003 -4.66629696 76.48106003 C-1.03629696 72.85106003 2.59370304 69.22106003 6.33370304 65.48106003 C-11.98129696 64.98606003 -11.98129696 64.98606003 -30.66629696 64.48106003 C-30.99629696 44.02106003 -31.32629696 23.56106003 -31.66629696 2.48106003 C-23.53839929 -1.58288881 -9.0735385 0.24892943 0 0 Z " fill="#FCFCFC" transform="translate(147.66629695892334,46.51893997192383)"/>
<path d="M0 0 C0.76950989 -0.0021904 1.53901978 -0.0043808 2.33184814 -0.00663757 C4.8705164 -0.0089457 7.40802 0.01728408 9.9465332 0.04418945 C11.70961641 0.04911287 13.47270484 0.05241207 15.23579407 0.05415344 C18.92706035 0.06179025 22.61793843 0.08234512 26.30908203 0.11328125 C31.05074604 0.15294296 35.79215792 0.17090389 40.53396893 0.18059063 C45.04652479 0.19054117 49.55901847 0.2104446 54.0715332 0.23168945 C55.3705787 0.23678308 55.3705787 0.23678308 56.69586754 0.2419796 C59.13325878 0.25350182 61.57048638 0.27201214 64.0078125 0.29296875 C64.73664139 0.29565765 65.46547028 0.29834656 66.21638489 0.30111694 C71.1949092 0.35506545 71.1949092 0.35506545 72.30981445 1.4699707 C72.410847 4.26990668 72.44951533 7.04465714 72.44262695 9.8449707 C72.44358368 10.68463379 72.44454041 11.52429688 72.44552612 12.3894043 C72.44620793 14.16821365 72.44435362 15.94702548 72.44018555 17.72583008 C72.43483728 20.45830846 72.44013051 23.19062247 72.4465332 25.9230957 C72.44587242 27.6470544 72.44459126 29.371013 72.44262695 31.0949707 C72.44465118 31.91787598 72.44667542 32.74078125 72.44876099 33.58862305 C72.424765 39.35502016 72.424765 39.35502016 71.30981445 40.4699707 C69.53111719 40.62761475 67.74662969 40.72097747 65.9621582 40.78637695 C64.88256836 40.82827148 63.80297852 40.87016602 62.69067383 40.91333008 C61.55436523 40.95264648 60.41805664 40.99196289 59.24731445 41.0324707 C57.53705078 41.09724609 57.53705078 41.09724609 55.79223633 41.16333008 C52.9648925 41.26979909 50.13745707 41.37181278 47.30981445 41.4699707 C47.30981445 37.84549145 47.52096615 34.3305745 47.80981445 30.7199707 C47.90262695 29.54950195 47.99543945 28.3790332 48.09106445 27.1730957 C48.1993457 25.83504883 48.1993457 25.83504883 48.30981445 24.4699707 C44.67981445 24.4699707 41.04981445 24.4699707 37.30981445 24.4699707 C33.85517446 47.89010567 33.85517446 47.89010567 39.83581543 69.97686768 C44.98375242 76.54678964 51.37926564 81.83921744 57.72961426 87.20031738 C73.97850636 101.02095674 73.97850636 101.02095674 74.97698975 112.96495056 C75.2189046 119.85124503 74.57362943 126.70160062 73.30981445 133.4699707 C69.30981445 133.4699707 69.30981445 133.4699707 67.28271484 131.89697266 C66.58138428 131.17469482 65.88005371 130.45241699 65.1574707 129.70825195 C64.38081055 128.91870117 63.60415039 128.12915039 62.80395508 127.31567383 C62.00151367 126.4797168 61.19907227 125.64375977 60.37231445 124.7824707 C59.57374023 123.96584961 58.77516602 123.14922852 57.95239258 122.30786133 C55.73125483 120.0351976 53.52021155 117.75307122 51.30981445 115.4699707 C48.94109246 113.04583365 46.63626431 110.71910349 43.93481445 108.6574707 C40.979033 106.1943195 38.63275311 103.47375548 36.13793945 100.5559082 C33.34687137 97.37122795 30.33140637 94.43345508 27.30981445 91.4699707 C26.01043945 90.1396582 26.01043945 90.1396582 24.68481445 88.7824707 C22.35717991 86.43194768 22.35717991 86.43194768 19.74731445 84.4699707 C15.68789214 81.13916265 13.51761962 78.94403054 12.76391602 73.59765625 C12.72295028 72.10107836 12.70285452 70.60382596 12.70043945 69.10668945 C12.6839032 68.31470657 12.66736694 67.52272369 12.65032959 66.70674133 C12.60194873 64.19023813 12.5805017 61.67433875 12.55981445 59.1574707 C12.53164632 57.44585195 12.5017177 55.7342612 12.4699707 54.02270508 C12.39619299 49.83851003 12.34655827 45.65464821 12.30981445 41.4699707 C11.33633057 41.48568115 10.36284668 41.5013916 9.35986328 41.51757812 C5.73511079 41.57203309 2.1103942 41.60637696 -1.51464844 41.63476562 C-3.08111662 41.64981693 -4.64754291 41.67026277 -6.21386719 41.69628906 C-8.47040161 41.73283503 -10.72637708 41.74973331 -12.9831543 41.76293945 C-13.67918259 41.77842331 -14.37521088 41.79390717 -15.09233093 41.80986023 C-19.50829844 41.81137563 -22.13489267 41.07766447 -25.69018555 38.4699707 C-26.51518555 37.8718457 -27.34018555 37.2737207 -28.19018555 36.6574707 C-31.07254053 34.13541009 -33.30789281 31.464853 -35.69018555 28.4699707 C-33.97859464 26.7583798 -32.26677388 25.04703181 -30.5534668 23.3371582 C-29.08946561 21.87008783 -27.63751879 20.39098728 -26.19018555 18.9074707 C-24.19980571 16.96685036 -22.19308158 15.18813684 -20.06518555 13.4074707 C-17.53586487 11.28415812 -15.64241804 9.14144674 -13.69018555 6.4699707 C-13.03018555 6.4699707 -12.37018555 6.4699707 -11.69018555 6.4699707 C-11.69018555 5.8099707 -11.69018555 5.1499707 -11.69018555 4.4699707 C-8.45117206 0.00246572 -5.16048526 -0.09146393 0 0 Z M2.30981445 24.4699707 C1.64981445 25.7899707 0.98981445 27.1099707 0.30981445 28.4699707 C-0.68018555 28.9649707 -0.68018555 28.9649707 -1.69018555 29.4699707 C-0.84133789 30.19313477 -0.84133789 30.19313477 0.0246582 30.9309082 C1.12487305 31.87836914 1.12487305 31.87836914 2.24731445 32.8449707 C2.97821289 33.47145508 3.70911133 34.09793945 4.4621582 34.7434082 C6.30981445 36.4699707 6.30981445 36.4699707 7.30981445 38.4699707 C7.96981445 38.4699707 8.62981445 38.4699707 9.30981445 38.4699707 C9.30981445 39.1299707 9.30981445 39.7899707 9.30981445 40.4699707 C10.29981445 40.1399707 11.28981445 39.8099707 12.30981445 39.4699707 C14.30167814 34.33305909 14.50193716 29.94546777 14.30981445 24.4699707 C10.34981445 24.4699707 6.38981445 24.4699707 2.30981445 24.4699707 Z " fill="#FCFCFC" transform="translate(36.690185546875,47.530029296875)"/>
<path d="M0 0 C3.6245661 2.96764805 7.12526507 6.06417276 10.60107422 9.20361328 C12.70246511 11.06208859 14.89138151 12.80191577 17.10058594 14.52978516 C16.77058594 15.84978516 16.44058594 17.16978516 16.10058594 18.52978516 C11.51366296 18.56030283 6.92993873 18.5436451 2.34326172 18.48706055 C0.78993034 18.47408675 -0.76355592 18.47303141 -2.31689453 18.48510742 C-12.50999269 18.55429135 -19.9009171 17.41669781 -28.7878418 12.26611328 C-42.91728158 4.38156438 -62.92840695 4.1028353 -78.39941406 8.02978516 C-83.09009344 9.40460629 -86.80989375 10.95666008 -90.97947693 13.56994629 C-100.22925435 19.2468843 -108.22740452 19.51157075 -118.83691406 19.02978516 C-120.40648246 18.989519 -121.97615276 18.95304181 -123.54589844 18.92041016 C-127.33299648 18.83363967 -131.11502439 18.69642777 -134.89941406 18.52978516 C-134.04719778 14.13176138 -131.64176599 11.77302172 -128.52441406 8.71728516 C-127.98204102 8.18393555 -127.43966797 7.65058594 -126.88085938 7.10107422 C-116.18452328 -3.14672594 -100.41275626 -11.94755897 -85.89941406 -15.47021484 C-84.27132812 -15.88400391 -84.27132812 -15.88400391 -82.61035156 -16.30615234 C-54.57159227 -22.5306427 -23.11384659 -17.89094912 0 0 Z " fill="#FBFBFB" transform="translate(171.8994140625,21.47021484375)"/>
<path d="M0 0 C0.89731815 21.18667845 -5.02853612 42.126963 -18 59 C-18.66 59.96164063 -19.32 60.92328125 -20 61.9140625 C-24.10591585 67.86443274 -28.36164035 72.51039026 -34 77 C-34.67933594 77.61101562 -35.35867187 78.22203125 -36.05859375 78.8515625 C-52.9827498 93.57587158 -73.33088187 98.97959494 -95 102 C-95.82638376 99.10765685 -96 97.11257569 -96 94 C-95.34 94 -94.68 94 -94 94 C-94 93.34 -94 92.68 -94 92 C-93.34 92 -92.68 92 -92 92 C-91.5978125 91.0409375 -91.5978125 91.0409375 -91.1875 90.0625 C-90 88 -90 88 -87 87 C-87 86.34 -87 85.68 -87 85 C-86.34 85 -85.68 85 -85 85 C-85 84.34 -85 83.68 -85 83 C-84.34 83 -83.68 83 -83 83 C-83 82.34 -83 81.68 -83 81 C-82.34 81 -81.68 81 -81 81 C-80.79375 80.443125 -80.5875 79.88625 -80.375 79.3125 C-76.95227781 73.55610359 -71.17476672 70.92056467 -65.3125 68.25 C-53.51275644 62.5740541 -44.57637883 54.74788624 -37 44 C-36.67 43.01 -36.34 42.02 -36 41 C-35.34 41 -34.68 41 -34 41 C-33.773125 40.21625 -33.54625 39.4325 -33.3125 38.625 C-28.41967213 25.11147541 -28.41967213 25.11147541 -23 21 C-22.34 21 -21.68 21 -21 21 C-20.34 19.68 -19.68 18.36 -19 17 C-18.34 17 -17.68 17 -17 17 C-16.79375 16.443125 -16.5875 15.88625 -16.375 15.3125 C-14.83059277 12.71508783 -12.93722357 11.15679307 -10.5859375 9.29296875 C-7.57432384 6.83768766 -4.94521307 3.97897068 -2.25 1.1875 C-1 0 -1 0 0 0 Z " fill="#FAFAFA" transform="translate(213,101)"/>
<path d="M0 0 C0.66 0 1.32 0 2 0 C3.23462027 1.43482897 4.46342675 2.87549648 5.6484375 4.3515625 C8.42825244 7.74197263 11.53370308 10.62299398 14.9375 13.375 C17.85050196 15.75021698 20.18285809 18.42793642 22.5625 21.328125 C24.09440077 23.18849104 24.09440077 23.18849104 26.5625 25.25 C30.09466609 29.2350079 34 35.49978118 34 41 C34.66 41 35.32 41 36 41 C36.86738869 42.44766265 37.66726778 43.93589 38.4375 45.4375 C41.62184832 51.02003584 45.69929665 54.37547483 50.8046875 58.1875 C51.52914062 58.785625 52.25359375 59.38375 53 60 C53 60.66 53 61.32 53 62 C53.58394531 62.28101563 54.16789062 62.56203125 54.76953125 62.8515625 C56.84390691 63.91962983 58.74043737 65.09328582 60.6875 66.375 C64.93749475 69.07011862 69.37587933 71.04290329 74 73 C74.66 73.33 75.32 73.66 76 74 C76 74.66 76 75.32 76 76 C76.60328125 76.26425781 77.2065625 76.52851563 77.828125 76.80078125 C80.1042287 78.05755074 81.16818433 79.15440162 82.75 81.1875 C85.61836869 84.70877103 88.81975695 87.49614888 92.36328125 90.32421875 C94.22171629 92.22700784 94.45852339 93.45345161 95 96 C95.66 96.33 96.32 96.66 97 97 C96.505 98.98 96.505 98.98 96 101 C79.62244974 101.86197633 62.88399739 96.47628102 49 88 C48.1440625 87.51402344 47.288125 87.02804688 46.40625 86.52734375 C41.61827709 83.77425932 37.7702652 81.09343079 34 77 C33.21625 76.401875 32.4325 75.80375 31.625 75.1875 C26.79721356 71.16434463 22.56127822 66.18004104 19 61 C19 60.34 19 59.68 19 59 C18.34 59 17.68 59 17 59 C6.49792455 40.27129878 -0.69519473 21.78276818 0 0 Z " fill="#FBFBFB" transform="translate(13,101)"/>
<path d="M0 0 C0.66 0 1.32 0 2 0 C2.8046875 1.6796875 2.8046875 1.6796875 3 4 C0.9453125 6.5078125 0.9453125 6.5078125 -1.875 9.125 C-5.39236087 12.21842731 -5.39236087 12.21842731 -8 16 C-8.66 16 -9.32 16 -10 16 C-10 16.66 -10 17.32 -10 18 C-11.65002828 19.35386936 -13.3174387 20.68678142 -15 22 C-15.33 22.66 -15.66 23.32 -16 24 C-16.66 24 -17.32 24 -18 24 C-18 24.66 -18 25.32 -18 26 C-19.5390625 27.48046875 -19.5390625 27.48046875 -21.625 29.1875 C-24.974838 32.02424661 -27.76731652 34.97265444 -30.546875 38.35546875 C-32.79227012 40.89662828 -35.33716651 42.90777369 -38 45 C-39.01097258 40.70336653 -40.04130598 36.08261196 -38 32 C-35.4375 31.375 -35.4375 31.375 -33 31 C-33 31.99 -33 32.98 -33 34 C-31.05000871 33.80528889 -31.05000871 33.80528889 -29 33 C-27.12619554 30.50159405 -26.94998068 29.36680834 -27.375 26.25 C-27.58125 25.5075 -27.7875 24.765 -28 24 C-26.02 23.34 -24.04 22.68 -22 22 C-21.34 22.66 -20.68 23.32 -20 24 C-19.34 23.34 -18.68 22.68 -18 22 C-18.66 21.01 -19.32 20.02 -20 19 C-20 18.01 -20 17.02 -20 16 C-17.33333333 16 -14.66666667 16 -12 16 C-11.34 15.34 -10.68 14.68 -10 14 C-10.66 12.68 -11.32 11.36 -12 10 C-10 10 -8 10 -6 10 C-3.60179695 7.36315253 -3.60179695 7.36315253 -3 4 C-2.01 3.67 -1.02 3.34 0 3 C0 2.01 0 1.02 0 0 Z " fill="#F3F3F3" transform="translate(156,138)"/>
<path d="M0 0 C4.56030824 3.80475422 8.85089392 7.74969621 13 12 C12.67 12.66 12.34 13.32 12 14 C9.9375 14.625 9.9375 14.625 8 15 C7.67 13.68 7.34 12.36 7 11 C6.01 12.485 6.01 12.485 5 14 C3.68 12.68 2.36 11.36 1 10 C1.66 9.67 2.32 9.34 3 9 C2.34 8.566875 1.68 8.13375 1 7.6875 C0.34 7.130625 -0.32 6.57375 -1 6 C-1 5.01 -1 4.02 -1 3 C-1.66 2.67 -2.32 2.34 -3 2 C-2.01 1.34 -1.02 0.68 0 0 Z " fill="#F4F4F4" transform="translate(81,122)"/>
<path d="M0 0 C2.31 0.33 4.62 0.66 7 1 C7.495 2.485 7.495 2.485 8 4 C4.955498 6.029668 4.39723672 6.24856301 0.98754883 6.22705078 C0.18694534 6.22689972 -0.61365814 6.22674866 -1.43852234 6.22659302 C-2.29798965 6.21627045 -3.15745697 6.20594788 -4.04296875 6.1953125 C-4.9265657 6.1924826 -5.81016266 6.18965271 -6.72053528 6.18673706 C-9.54299454 6.17554097 -12.36513662 6.15043751 -15.1875 6.125 C-17.10090688 6.11496946 -19.01431873 6.10584374 -20.92773438 6.09765625 C-25.61861182 6.07560351 -30.30925213 6.04107762 -35 6 C-35 5.34 -35 4.68 -35 4 C-24.11 4 -13.22 4 -2 4 C-1.34 2.68 -0.68 1.36 0 0 Z " fill="#F4F4F4" transform="translate(152,105)"/>
<path d="M0 0 C2.62405081 1.59169398 4.18336902 2.59658687 6 5 C6.80882688 8.74681563 6.65762296 12.37253192 6.5 16.1875 C6.48453125 17.7024707 6.48453125 17.7024707 6.46875 19.24804688 C6.30944549 26.69055451 6.30944549 26.69055451 4 29 C3.67 21.74 3.34 14.48 3 7 C1.68 7.33 0.36 7.66 -1 8 C-1.08226668 4.95613276 -0.97608217 2.92824652 0 0 Z " fill="#F0F0F0" transform="translate(103,144)"/>
<path d="M0 0 C0.66 0.33 1.32 0.66 2 1 C1.34 2.65 0.68 4.3 0 6 C0.66 6.33 1.32 6.66 2 7 C1.01 7.33 0.02 7.66 -1 8 C-2.21869929 10.50447516 -2.21869929 10.50447516 -3 13 C-3.99 13 -4.98 13 -6 13 C-6.99 13.66 -7.98 14.32 -9 15 C-9.33 14.34 -9.66 13.68 -10 13 C-11.32 13.99 -12.64 14.98 -14 16 C-14 13 -14 13 -12.4609375 11.38671875 C-11.77257812 10.82597656 -11.08421875 10.26523438 -10.375 9.6875 C-6.7083062 6.62104789 -3.33703776 3.4204637 0 0 Z " fill="#F3F3F3" transform="translate(154,112)"/>
<path d="M0 0 C0.61875 0.165 1.2375 0.33 1.875 0.5 C4.44505223 1.10471817 5.80802648 1.05051935 8.375 0.375 C12.56734786 -0.22390684 14.57584111 1.7172274 18 4 C18.33 4.99 18.66 5.98 19 7 C11.63904818 6.68676801 5.69116911 5.06085395 -1 2 C-0.67 1.34 -0.34 0.68 0 0 Z " fill="#F5F5F5" transform="translate(76,193)"/>
<path d="M0 0 C-2.71658959 6.42102993 -7.66010543 10.77775778 -13 15 C-13.66 14.67 -14.32 14.34 -15 14 C-14.67 12.35 -14.34 10.7 -14 9 C-12.02 8.34 -10.04 7.68 -8 7 C-8 6.01 -8 5.02 -8 4 C-8.66 3.67 -9.32 3.34 -10 3 C-6.80698444 -0.64916064 -4.81352261 0 0 0 Z " fill="#F6F6F6" transform="translate(179,120)"/>
<path d="M0 0 C6.50614676 1.2930197 9.97576723 5.51893169 14.375 10.125 C15.11105469 10.87910156 15.84710938 11.63320312 16.60546875 12.41015625 C18.41305583 14.26469365 20.2106159 16.12792129 22 18 C21.67 18.99 21.34 19.98 21 21 C20.67 20.67 20.34 20.34 20 20 C19.34 20.66 18.68 21.32 18 22 C18 21.34 18 20.68 18 20 C16.68 20 15.36 20 14 20 C14 19.34 14 18.68 14 18 C14.66 18 15.32 18 16 18 C15.45925627 14.21479387 13.92427254 12.40822445 11 10 C10.01 10 9.02 10 8 10 C7.9175 9.401875 7.835 8.80375 7.75 8.1875 C6.77822147 5.35314597 5.51696446 4.5545957 3 3 C2.01 2.67 1.02 2.34 0 2 C0 1.34 0 0.68 0 0 Z " fill="#F2F2F2" transform="translate(198,53)"/>
<path d="M0 0 C-0.33 1.32 -0.66 2.64 -1 4 C-1.66 4 -2.32 4 -3 4 C-2.67 4.99 -2.34 5.98 -2 7 C-3.4540625 7.5878125 -3.4540625 7.5878125 -4.9375 8.1875 C-5.948125 8.785625 -6.95875 9.38375 -8 10 C-8.65555119 12.52733235 -8.65555119 12.52733235 -9 15 C-11.0625 16.3125 -11.0625 16.3125 -13 17 C-13.66 16.01 -14.32 15.02 -15 14 C-13.07277893 11.65745532 -11.13424968 9.32621992 -9.1875 7 C-8.64029297 6.33226562 -8.09308594 5.66453125 -7.52929688 4.9765625 C-6.99755859 4.34492188 -6.46582031 3.71328125 -5.91796875 3.0625 C-5.43094482 2.47597656 -4.9439209 1.88945312 -4.44213867 1.28515625 C-3 0 -3 0 0 0 Z " fill="#F2F2F2" transform="translate(179,145)"/>
<path d="M0 0 C1.32 0.33 2.64 0.66 4 1 C4 1.66 4 2.32 4 3 C4.5775 2.814375 5.155 2.62875 5.75 2.4375 C8.20692525 1.95976454 9.64397534 2.24270636 12 3 C11.34 4.32 10.68 5.64 10 7 C10.66 7.33 11.32 7.66 12 8 C12 8.66 12 9.32 12 10 C7.72875444 9.52541716 5.79491392 7.08157175 3 4 C1.97186389 2.68824014 0.95915568 1.3630107 0 0 Z " fill="#F1F1F1" transform="translate(44,174)"/>
<path d="M0 0 C0.99 0 1.98 0 3 0 C3.33 0.66 3.66 1.32 4 2 C4.99 1.67 5.98 1.34 7 1 C7.66 1.33 8.32 1.66 9 2 C8.67 3.32 8.34 4.64 8 6 C4.37 5.67 0.74 5.34 -3 5 C-2.34 4.67 -1.68 4.34 -1 4 C-0.34786708 1.97536745 -0.34786708 1.97536745 0 0 Z " fill="#F5F5F5" transform="translate(180,34)"/>
<path d="M0 0 C0.33 0 0.66 0 1 0 C1.01417969 0.73605469 1.02835937 1.47210938 1.04296875 2.23046875 C1.2709922 8.68004111 1.2709922 8.68004111 4.5625 14.0625 C5.366875 14.701875 6.17125 15.34125 7 16 C7 16.66 7 17.32 7 18 C6.34 18 5.68 18 5 18 C4.34 17.34 3.68 16.68 3 16 C2.01 16.33 1.02 16.66 0 17 C-0.97040422 11.06975197 -0.89316269 5.93609666 0 0 Z " fill="#F3F3F3" transform="translate(73,104)"/>
<path d="M0 0 C-1.11375 0.4125 -2.2275 0.825 -3.375 1.25 C-5.99320695 2.35546516 -6.83493089 2.74880787 -8.4375 5.1875 C-8.7159375 6.0846875 -8.7159375 6.0846875 -9 7 C-9 6.01 -9 5.02 -9 4 C-9.66 4 -10.32 4 -11 4 C-11 4.66 -11 5.32 -11 6 C-13.5 7.625 -13.5 7.625 -16 9 C-15.875 7.25 -15.875 7.25 -15 5 C-5.76583211 -2.13549337 -5.76583211 -2.13549337 0 0 Z " fill="#F1F1F1" transform="translate(151,171)"/>
<path d="M0 0 C5.75 -0.125 5.75 -0.125 8 1 C7.67 3.31 7.34 5.62 7 8 C5.8274869 7.04882866 4.66212985 6.08882991 3.5 5.125 C2.8503125 4.59132812 2.200625 4.05765625 1.53125 3.5078125 C1.0259375 3.01023438 0.520625 2.51265625 0 2 C0 1.34 0 0.68 0 0 Z " fill="#F1F1F1" transform="translate(72,145)"/>
<path d="M0 0 C0.33 0.66 0.66 1.32 1 2 C1.66 2.33 2.32 2.66 3 3 C3.2475 3.556875 3.495 4.11375 3.75 4.6875 C5.58869174 8.08907973 8.21003785 10.33134055 11 13 C10.67 13.66 10.34 14.32 10 15 C1.07288247 7.48128693 1.07288247 7.48128693 -2 3 C-2 2.34 -2 1.68 -2 1 C-1.34 0.67 -0.68 0.34 0 0 Z " fill="#EDEDED" transform="translate(52,122)"/>
<path d="M0 0 C3.43595166 1.52708963 6.11912454 3.59927045 9 6 C8.67 7.32 8.34 8.64 8 10 C6.68 9.67 5.36 9.34 4 9 C4 7.68 4 6.36 4 5 C1.525 4.01 1.525 4.01 -1 3 C-0.67 2.01 -0.34 1.02 0 0 Z " fill="#F4F4F4" transform="translate(57,155)"/>
<path d="M0 0 C0.33 0 0.66 0 1 0 C1 3.3 1 6.6 1 10 C-1.475 9.01 -1.475 9.01 -4 8 C-2.25 2.25 -2.25 2.25 0 0 Z " fill="#FCFCFC" transform="translate(212,101)"/>
<path d="M0 0 C3.93673644 1.31224548 6.22719294 2.91910327 9 6 C8 8 8 8 6 9 C4.5 7.625 4.5 7.625 3 6 C3 5.34 3 4.68 3 4 C1.68 3.67 0.36 3.34 -1 3 C-0.67 2.01 -0.34 1.02 0 0 Z " fill="#F3F3F3" transform="translate(169,21)"/>
<path d="M0 0 C2.875 -0.125 2.875 -0.125 6 0 C6.66 0.66 7.32 1.32 8 2 C7.34 2.66 6.68 3.32 6 4 C6.66 4.66 7.32 5.32 8 6 C4 6 4 6 1.75 4.125 C0 2 0 2 0 0 Z " fill="#F0F0F0" transform="translate(64,137)"/>
<path d="M0 0 C1.32 0.33 2.64 0.66 4 1 C4.103125 1.598125 4.20625 2.19625 4.3125 2.8125 C5.08876455 5.28243264 6.07088921 6.32251235 8 8 C5 8 5 8 2.3125 5.6875 C0 3 0 3 0 0 Z M6 2 C6.66 3.32 7.32 4.64 8 6 C7.34 5.67 6.68 5.34 6 5 C6 4.01 6 3.02 6 2 Z " fill="#F2F2F2" transform="translate(96,168)"/>
<path d="M0 0 C1.4540625 0.0309375 1.4540625 0.0309375 2.9375 0.0625 C2.6075 0.7225 2.2775 1.3825 1.9375 2.0625 C3.2575 2.7225 4.5775 3.3825 5.9375 4.0625 C2.3075 4.3925 -1.3225 4.7225 -5.0625 5.0625 C-3.81634615 0.07788462 -3.81634615 0.07788462 0 0 Z " fill="#F2F2F2" transform="translate(42.0625,34.9375)"/>
<path d="M0 0 C0.66 0.33 1.32 0.66 2 1 C1.67 1.66 1.34 2.32 1 3 C1.61875 3.12375 2.2375 3.2475 2.875 3.375 C5 4 5 4 7 6 C7.99 6.33 8.98 6.66 10 7 C9.34 8.32 8.68 9.64 8 11 C6.68113228 9.90344712 5.37009943 8.79746577 4.0625 7.6875 C3.33160156 7.07261719 2.60070312 6.45773438 1.84765625 5.82421875 C0 4 0 4 -1 1 C-0.67 0.67 -0.34 0.34 0 0 Z " fill="#F0F0F0" transform="translate(86,158)"/>
<path d="M0 0 C0.33 0.66 0.66 1.32 1 2 C0.109375 3.9453125 0.109375 3.9453125 -1.25 6.125 C-1.68828125 6.84945312 -2.1265625 7.57390625 -2.578125 8.3203125 C-3.04734375 8.87460938 -3.5165625 9.42890625 -4 10 C-4.99 10 -5.98 10 -7 10 C-5.6062718 5.56541027 -3.39417765 3.12621626 0 0 Z " fill="#F2F2F2" transform="translate(200,149)"/>
<path d="M0 0 C0.66 1.32 1.32 2.64 2 4 C2.66 4 3.32 4 4 4 C4.33 6.64 4.66 9.28 5 12 C4.34 12 3.68 12 3 12 C-1.06153846 5.72307692 -1.06153846 5.72307692 -0.75 2.0625 C-0.5025 1.381875 -0.255 0.70125 0 0 Z " fill="#F1F1F1" transform="translate(23,141)"/>
<path d="M0 0 C0.61875 0.165 1.2375 0.33 1.875 0.5 C3.96063386 1.07634644 3.96063386 1.07634644 6 1 C6.99 1.33 7.98 1.66 9 2 C9 2.99 9 3.98 9 5 C4.545 4.01 4.545 4.01 0 3 C0 2.01 0 1.02 0 0 Z " fill="#EFEFEF" transform="translate(76,193)"/>
<path d="M0 0 C1.65322266 0.01740234 1.65322266 0.01740234 3.33984375 0.03515625 C4.99693359 0.04869141 4.99693359 0.04869141 6.6875 0.0625 C7.54214844 0.07410156 8.39679688 0.08570312 9.27734375 0.09765625 C9.27734375 0.42765625 9.27734375 0.75765625 9.27734375 1.09765625 C5.97734375 1.42765625 2.67734375 1.75765625 -0.72265625 2.09765625 C-1.05265625 5.06765625 -1.38265625 8.03765625 -1.72265625 11.09765625 C-2.05265625 11.09765625 -2.38265625 11.09765625 -2.72265625 11.09765625 C-2.91672103 9.45258407 -3.1027356 7.80656031 -3.28515625 6.16015625 C-3.38957031 5.24363281 -3.49398437 4.32710938 -3.6015625 3.3828125 C-3.64152344 2.62871094 -3.68148437 1.87460938 -3.72265625 1.09765625 C-2.72265625 0.09765625 -2.72265625 0.09765625 0 0 Z " fill="#F4F4F4" transform="translate(142.72265625,69.90234375)"/>
<path d="M0 0 C0.33 0.66 0.66 1.32 1 2 C1.99 2.33 2.98 2.66 4 3 C3.625 5.4375 3.625 5.4375 3 8 C2.01 8.495 2.01 8.495 1 9 C0.855625 8.401875 0.71125 7.80375 0.5625 7.1875 C0.1127561 5.43849596 -0.42892341 3.71322977 -1 2 C-0.67 1.34 -0.34 0.68 0 0 Z " fill="#F0F0F0" transform="translate(40,131)"/>
<path d="M0 0 C0.33 0.99 0.66 1.98 1 3 C3.97 3.495 3.97 3.495 7 4 C7 4.33 7 4.66 7 5 C5.54364629 5.22174933 4.08477044 5.42698698 2.625 5.625 C1.81289063 5.74101563 1.00078125 5.85703125 0.1640625 5.9765625 C-0.55007812 5.98429687 -1.26421875 5.99203125 -2 6 C-2.66 5.34 -3.32 4.68 -4 4 C-3.34 4 -2.68 4 -2 4 C-1.34 2.68 -0.68 1.36 0 0 Z " fill="#F1F1F1" transform="translate(42,66)"/>
<path d="M0 0 C0.33 1.32 0.66 2.64 1 4 C-2.68754757 3.50168276 -4.60490662 2.89932357 -7 0 C-4.3333581 -1.33332095 -2.83319697 -0.67102033 0 0 Z " fill="#F3F3F3" transform="translate(84,172)"/>
<path d="M0 0 C0.66 0.33 1.32 0.66 2 1 C1.67 2.32 1.34 3.64 1 5 C0.401875 5.144375 -0.19625 5.28875 -0.8125 5.4375 C-2.56150404 5.8872439 -4.28677023 6.42892341 -6 7 C-4.77065985 3.31197956 -3.06140622 2.27643027 0 0 Z " fill="#F1F1F1" transform="translate(162,160)"/>
<path d="M0 0 C1.32 0.66 2.64 1.32 4 2 C3.01 3.485 3.01 3.485 2 5 C-0.625 5.1875 -0.625 5.1875 -3 5 C-1.125 1.125 -1.125 1.125 0 0 Z " fill="#F6F6F6" transform="translate(35,71)"/>
<path d="M0 0 C0.66 1.32 1.32 2.64 2 4 C1.01 5.485 1.01 5.485 0 7 C-0.99 7 -1.98 7 -3 7 C-2.38722388 4.03824877 -1.74627478 2.61941217 0 0 Z " fill="#F2F2F2" transform="translate(22,55)"/>
<path d="M0 0 C1.32 0.99 2.64 1.98 4 3 C3.01 4.485 3.01 4.485 2 6 C-1.125 6.1875 -1.125 6.1875 -4 6 C-3.34 5.38125 -2.68 4.7625 -2 4.125 C0.2284549 2.24362573 0.2284549 2.24362573 0 0 Z " fill="#F2F2F2" transform="translate(152,188)"/>
<path d="M0 0 C2 1 2 1 3 3 C1.03533587 4.06775224 -0.96855359 5.06553465 -3 6 C-3.66 5.67 -4.32 5.34 -5 5 C-4.01 4.67 -3.02 4.34 -2 4 C-2 3.01 -2 2.02 -2 1 C-1.34 0.67 -0.68 0.34 0 0 Z " fill="#F4F4F4" transform="translate(161,186)"/>
<path d="M0 0 C0.66 0.33 1.32 0.66 2 1 C1.75 2.875 1.75 2.875 1 5 C-1.0625 6.25 -1.0625 6.25 -3 7 C-2.67 6.01 -2.34 5.02 -2 4 C-2.33 3.34 -2.66 2.68 -3 2 C-2.01 1.34 -1.02 0.68 0 0 Z " fill="#F2F2F2" transform="translate(179,172)"/>
<path d="M0 0 C0.66 0 1.32 0 2 0 C2.33 1.32 2.66 2.64 3 4 C1.68 4.99 0.36 5.98 -1 7 C-1.66 6.67 -2.32 6.34 -3 6 C-3 5.34 -3 4.68 -3 4 C-2.01 3.67 -1.02 3.34 0 3 C0 2.01 0 1.02 0 0 Z " fill="#F5F5F5" transform="translate(156,138)"/>
<path d="M0 0 C0.99 0 1.98 0 3 0 C2.125 6.75 2.125 6.75 1 9 C0.34 8.67 -0.32 8.34 -1 8 C-0.67 5.36 -0.34 2.72 0 0 Z " fill="#F1F1F1" transform="translate(206,128)"/>
<path d="M0 0 C1.98 0.99 1.98 0.99 4 2 C4 2.99 4 3.98 4 5 C4.66 5.33 5.32 5.66 6 6 C4.35 5.67 2.7 5.34 1 5 C0.67 3.35 0.34 1.7 0 0 Z " fill="#F4F4F4" transform="translate(104,192)"/>
<path d="M0 0 C2.00720923 0.28674418 4.0085944 0.61866701 6 1 C5.67 1.99 5.34 2.98 5 4 C2.13275314 3.42655063 1.1385485 3.1385485 -1 1 C-0.67 0.67 -0.34 0.34 0 0 Z " fill="#F1F1F1" transform="translate(69,190)"/>
<path d="M0 0 C0.66 0.66 1.32 1.32 2 2 C1.8125 4 1.8125 4 1 6 C0.01 6.66 -0.98 7.32 -2 8 C-1.125 2.25 -1.125 2.25 0 0 Z " fill="#F4F4F4" transform="translate(188,162)"/>
<path d="M0 0 C0.99 0.66 1.98 1.32 3 2 C2.34 3.32 1.68 4.64 1 6 C-0.32 5.01 -1.64 4.02 -3 3 C-2.67 2.34 -2.34 1.68 -2 1 C-1.34 1.33 -0.68 1.66 0 2 C0 1.34 0 0.68 0 0 Z " fill="#F1F1F1" transform="translate(95,136)"/>
<path d="M0 0 C1.98 0.99 1.98 0.99 4 2 C4 2.99 4 3.98 4 5 C2.68 5 1.36 5 0 5 C0 3.35 0 1.7 0 0 Z " fill="#F4F4F4" transform="translate(32,121)"/>
<path d="" fill="#EDEDED" transform="translate(0,0)"/>
<path d="" fill="#FFFFFF" transform="translate(0,0)"/>
<path d="" fill="#FFFFFF" transform="translate(0,0)"/>
<path d="" fill="#FFFFFF" transform="translate(0,0)"/>
<path d="" fill="#FFFFFF" transform="translate(0,0)"/>
</svg>
